<svg width="288" height="284" viewBox="0 0 288 284" fill="none" xmlns="http://www.w3.org/2000/svg">
<path d="M145.467 3.41C145.853 2.0405 145.451 1.2935 146.176 0C149.073 41.6958 166.218 77.8423 197.926 105.424C223.011 127.26 254.733 139.988 287.953 141.548C287.343 141.679 285.571 141.955 285.273 142.262C278.498 142.592 271.445 143.755 264.793 145.082C200.038 158.015 148.828 216.822 145.891 283.4L145.75 283.49L145.506 283.375L145.209 281.76C145.282 277.742 144.17 269.972 143.473 265.955C138.795 239.022 126.817 213.947 108.912 193.4C83.5948 164.342 49.481 146.68 11.2398 142.575C7.54925 142.18 3.7365 142.155 0 141.935C0.571 141.531 4.678 141.497 5.6965 141.441C11.9498 141.087 18.1715 140.307 24.3187 139.107C50.965 133.989 75.703 121.677 95.8518 103.504C119.445 82.4455 135.776 54.4668 142.509 23.5678C143.734 17.9415 145.16 9.12975 145.467 3.41Z" fill="white"/>
</svg>
