<svg width="211" height="120" viewBox="0 0 211 120" fill="none" xmlns="http://www.w3.org/2000/svg">
<path d="M0.428711 0.59506H10.526C15.9905 0.59506 19.0791 3.80839 19.0791 8.17217C19.0791 11.0681 17.3368 13.4087 15.0006 14.2021C17.7328 14.8765 19.9502 17.3758 19.9502 20.8668C19.9502 25.4289 16.5449 28.7216 11.2784 28.7216H0.428711V0.59506ZM5.81396 12.2186H9.6945C12.1891 12.2186 13.6938 10.8301 13.6938 8.68789C13.6938 6.54567 12.3079 5.19686 9.6549 5.19686H5.81396V12.2186ZM5.81396 24.1595H10.2489C12.9019 24.1595 14.4858 22.771 14.4858 20.5098C14.4858 18.2882 13.0603 16.741 10.3281 16.741H5.81396V24.1595Z" fill="white"/>
<path d="M35.7299 9.12427V14.4401C35.1359 14.3211 34.6211 14.2815 34.146 14.2815C31.4533 14.2815 29.1171 15.5906 29.1171 19.7957V28.7216H23.8506V9.20361H28.9587V12.0996C30.1466 9.52097 32.8393 9.04492 34.5023 9.04492C34.9379 9.04492 35.3339 9.0846 35.7299 9.12427Z" fill="white"/>
<path d="M47.719 24.5165C50.2928 24.5165 52.6687 22.652 52.6687 18.9626C52.6687 15.2732 50.2928 13.4087 47.719 13.4087C45.1451 13.4087 42.7693 15.2732 42.7693 18.9626C42.7693 22.6123 45.1451 24.5165 47.719 24.5165ZM47.719 8.60855C53.5398 8.60855 57.9351 12.9327 57.9351 18.9626C57.9351 24.9529 53.5398 29.3167 47.719 29.3167C41.8982 29.3167 37.5029 24.9529 37.5029 18.9626C37.5029 12.9327 41.8982 8.60855 47.719 8.60855Z" fill="white"/>
<path d="M70.5702 24.5165C73.144 24.5165 75.5198 22.652 75.5198 18.9626C75.5198 15.2732 73.144 13.4087 70.5702 13.4087C67.9963 13.4087 65.6205 15.2732 65.6205 18.9626C65.6205 22.6123 67.9963 24.5165 70.5702 24.5165ZM70.5702 8.60855C76.391 8.60855 80.7863 12.9327 80.7863 18.9626C80.7863 24.9529 76.391 29.3167 70.5702 29.3167C64.7493 29.3167 60.354 24.9529 60.354 18.9626C60.354 12.9327 64.7493 8.60855 70.5702 8.60855Z" fill="white"/>
<path d="M103.558 9.20361L95.7576 17.4154L103.717 28.7216H97.2623L92.1146 21.2635L89.9368 23.5644V28.7216H84.6703V0H89.9368V16.4634L96.6683 9.20361H103.558Z" fill="white"/>
<path d="M111.783 28.7216H106.516V0H111.783V28.7216Z" fill="white"/>
<path d="M123.879 36.4177H118.296L122.889 26.262L114.614 9.20361H120.514L125.701 20.6288L130.492 9.20361H136.115L123.879 36.4177Z" fill="white"/>
<path d="M144.299 17.4948V28.7216H139.032V9.20361H144.14V11.6235C145.328 9.60032 147.664 8.68789 149.763 8.68789C154.594 8.68789 156.811 12.1392 156.811 16.4237V28.7216H151.545V17.3361C151.545 15.1542 150.476 13.4484 147.942 13.4484C145.645 13.4484 144.299 15.2336 144.299 17.4948Z" fill="white"/>
<path d="M5.93275 53.353H10.2489C12.9811 53.353 14.6442 51.7662 14.6442 49.3463C14.6442 46.847 12.9811 45.2999 10.2489 45.2999H5.93275V53.353ZM10.922 58.0738H5.89315V68.6659H0.428711V40.5394H10.922C16.4657 40.5394 20.1482 44.2288 20.1482 49.3066C20.1482 54.4241 16.4657 58.0738 10.922 58.0738Z" fill="white"/>
<path d="M35.1885 49.0686V54.3845C34.5945 54.2654 34.0798 54.2258 33.6046 54.2258C30.912 54.2258 28.5757 55.5349 28.5757 59.74V68.6659H23.3093V49.1479H28.4173V52.0439C29.6053 49.4653 32.2979 48.9892 33.961 48.9892C34.3965 48.9892 34.7925 49.0289 35.1885 49.0686Z" fill="white"/>
<path d="M47.1776 64.4608C49.7514 64.4608 52.1273 62.5963 52.1273 58.9069C52.1273 55.2175 49.7514 53.353 47.1776 53.353C44.6038 53.353 42.2279 55.2175 42.2279 58.9069C42.2279 62.5566 44.6038 64.4608 47.1776 64.4608ZM47.1776 48.5529C52.9984 48.5529 57.3937 52.877 57.3937 58.9069C57.3937 64.8972 52.9984 69.261 47.1776 69.261C41.3568 69.261 36.9615 64.8972 36.9615 58.9069C36.9615 52.877 41.3568 48.5529 47.1776 48.5529Z" fill="white"/>
<path d="M79.8489 39.9443V65.1352C79.8489 66.4444 79.9281 67.8725 80.0073 68.6659H74.9785C74.8993 68.2692 74.7805 67.3171 74.7805 66.4047C73.9093 67.9519 71.9295 69.142 69.316 69.142C63.7724 69.142 59.8127 64.7782 59.8127 58.8673C59.8127 53.1547 63.6536 48.6719 69.1576 48.6719C72.5234 48.6719 74.1073 50.0603 74.6617 51.0918V39.9443H79.8489ZM65.1187 58.8673C65.1187 62.3583 67.1778 64.4212 69.9496 64.4212C72.6422 64.4212 74.7409 62.3583 74.7409 58.8276C74.7409 55.3366 72.6422 53.3927 69.9496 53.3927C67.257 53.3927 65.1187 55.3762 65.1187 58.8673Z" fill="white"/>
<path d="M97.962 68.6659C97.8828 68.2692 97.8036 67.3568 97.8036 66.5634C96.7345 68.3882 94.4775 69.1816 92.4184 69.1816C87.7063 69.1816 85.0137 65.7303 85.0137 61.4855V49.1479H90.2802V60.4144C90.2802 62.5963 91.3889 64.3418 93.8439 64.3418C96.1802 64.3418 97.5265 62.755 97.5265 60.4937V49.1479H102.793V65.1352C102.793 66.6427 102.912 67.9915 102.991 68.6659H97.962Z" fill="white"/>
<path d="M116.814 53.4324C114.121 53.4324 111.864 55.3762 111.864 58.9069C111.864 62.4376 114.161 64.4212 116.853 64.4212C119.546 64.4212 120.892 62.636 121.328 61.1285L125.961 62.6756C125.09 65.9286 122.041 69.261 116.853 69.261C111.112 69.261 106.598 64.8972 106.598 58.9069C106.598 52.877 111.033 48.5529 116.695 48.5529C122.001 48.5529 125.011 51.8455 125.842 55.1382L121.13 56.725C120.655 55.0985 119.427 53.4324 116.814 53.4324Z" fill="white"/>
<path d="M136.055 43.3163V49.1479H139.975V53.8291H136.055V62.0012C136.055 63.7071 136.847 64.2625 138.351 64.2625C138.985 64.2625 139.698 64.1831 139.975 64.1038V68.4676C139.5 68.6659 138.549 68.9436 137.005 68.9436C133.204 68.9436 130.828 66.6824 130.828 62.9137V53.8291H127.304V49.1479H128.293C130.353 49.1479 131.303 47.7991 131.303 46.0536V43.3163H136.055Z" fill="white"/>
<path d="M5.89315 103.532H10.2489C14.8422 103.532 18.6831 100.676 18.6831 94.5668C18.6831 88.4575 14.8818 85.5615 10.2885 85.5615H5.89315V103.532ZM10.4469 108.61H0.428711V80.4837H10.4865C18.4851 80.4837 24.3455 85.6805 24.3455 94.5668C24.3455 103.453 18.4455 108.61 10.4469 108.61Z" fill="white"/>
<path d="M32.3706 96.6297H41.082C41.0028 94.6858 39.7357 92.7816 36.7263 92.7816C33.9941 92.7816 32.4894 94.8445 32.3706 96.6297ZM41.5968 101.708L45.9921 103.017C45.0022 106.389 41.9136 109.205 37.1223 109.205C31.7766 109.205 27.0645 105.357 27.0645 98.7719C27.0645 92.5436 31.6578 88.4972 36.6471 88.4972C42.6659 88.4972 46.2693 92.3452 46.2693 98.6132C46.2693 99.367 46.1901 100.16 46.1901 100.24H32.2518C32.3706 102.818 34.5484 104.683 37.1619 104.683C39.6169 104.683 40.9632 103.453 41.5968 101.708Z" fill="white"/>
<path d="M48.4803 103.175L52.9944 102.184C53.1132 103.731 54.2615 105.159 56.5582 105.159C58.3005 105.159 59.132 104.246 59.132 103.215C59.132 102.342 58.538 101.628 57.0333 101.311L54.4595 100.716C50.6978 99.8827 48.9951 97.6214 48.9951 94.8842C48.9951 91.3931 52.0837 88.4972 56.281 88.4972C61.8246 88.4972 63.6857 92.0279 63.9233 94.1304L59.528 95.1222C59.3696 93.9717 58.538 92.5039 56.3206 92.5039C54.9347 92.5039 53.826 93.337 53.826 94.4478C53.826 95.3999 54.5387 95.9949 55.6078 96.1933L58.3797 96.7884C62.2206 97.5818 64.1609 99.9223 64.1609 102.779C64.1609 105.952 61.7058 109.205 56.5978 109.205C50.7374 109.205 48.7179 105.397 48.4803 103.175Z" fill="white"/>
<path d="M73.3887 108.61H68.1222V89.0922H73.3887V108.61ZM67.4887 82.7052C67.4887 80.8804 68.9538 79.4126 70.7357 79.4126C72.5571 79.4126 73.9827 80.8804 73.9827 82.7052C73.9827 84.4508 72.5571 85.9186 70.7357 85.9186C68.9538 85.9186 67.4887 84.4508 67.4887 82.7052Z" fill="white"/>
<path d="M77.368 109.681L82.1197 108.412C82.4761 110.554 84.1787 112.101 86.6734 112.101C89.9996 112.101 91.8606 110.435 91.8606 106.666V105.238C91.0687 106.508 89.2472 107.737 86.4358 107.737C81.2485 107.737 77.368 103.731 77.368 98.2562C77.368 93.099 81.0901 88.7352 86.4358 88.7352C89.5244 88.7352 91.3063 90.084 91.9794 91.3931V89.0922H97.0479V106.508C97.0479 111.863 94.1573 116.743 86.8318 116.743C81.4861 116.743 77.9224 113.41 77.368 109.681ZM87.3465 103.215C90.0392 103.215 91.9398 101.271 91.9398 98.2562C91.9398 95.2412 89.8808 93.337 87.3465 93.337C84.7331 93.337 82.674 95.2412 82.674 98.2562C82.674 101.311 84.6143 103.215 87.3465 103.215Z" fill="white"/>
<path d="M107.374 97.3834V108.61H102.108V89.0922H107.216V91.5122C108.404 89.4889 110.74 88.5765 112.839 88.5765C117.67 88.5765 119.887 92.0279 119.887 96.3123V108.61H114.621V97.2247C114.621 95.0428 113.551 93.337 111.017 93.337C108.721 93.337 107.374 95.1222 107.374 97.3834Z" fill="white"/>
<path fill-rule="evenodd" clip-rule="evenodd" d="M169.159 54.6536C166.706 54.6536 164.719 56.6446 164.719 59.0995C164.719 61.5543 166.706 63.5453 169.159 63.5453C171.611 63.5453 173.598 61.5543 173.598 59.0995C173.598 56.6446 171.611 54.6536 169.159 54.6536ZM161.578 59.0995C161.578 54.9059 164.973 51.5073 169.159 51.5073C173.345 51.5073 176.739 54.9059 176.739 59.0995C176.739 63.293 173.345 66.6916 169.159 66.6916C164.973 66.6916 161.578 63.293 161.578 59.0995Z" fill="white"/>
<path fill-rule="evenodd" clip-rule="evenodd" d="M141.37 105.131H155.438V119.221H141.37V105.131ZM144.511 108.277V116.075H152.297V108.277H144.511Z" fill="white"/>
<path fill-rule="evenodd" clip-rule="evenodd" d="M200.288 82.6926L210.341 100.671H190.236L200.288 82.6926ZM195.594 97.5246H204.982L200.288 89.1302L195.594 97.5246Z" fill="white"/>
</svg>
