<svg xmlns="http://www.w3.org/2000/svg" width="283" height="24" fill="none"><path fill="#409AF9" d="M243.023 11.65v5.66h-2.658V7.47h2.578v1.22c.599-1.02 1.778-1.48 2.838-1.48 2.438 0 3.557 1.74 3.557 3.9v6.2h-2.658v-5.74c0-1.1-.54-1.96-1.819-1.96-1.159 0-1.838.9-1.838 2.04m-15.003 6.2 2.398-.64c.18 1.08 1.039 1.86 2.298 1.86 1.679 0 2.618-.84 2.618-2.74v-.72c-.399.64-1.319 1.26-2.738 1.26-2.618 0-4.576-2.02-4.576-4.78 0-2.6 1.878-4.8 4.576-4.8 1.559 0 2.459.68 2.798 1.34V7.47h2.559v8.78c0 2.7-1.459 5.16-5.157 5.16-2.698 0-4.497-1.68-4.776-3.56m5.036-3.26c1.359 0 2.318-.98 2.318-2.5s-1.039-2.48-2.318-2.48c-1.319 0-2.358.96-2.358 2.48 0 1.54.979 2.5 2.358 2.5m-6.903 2.72h-2.658V7.47h2.658zm-2.978-13.06c0-.92.74-1.66 1.639-1.66.919 0 1.639.74 1.639 1.66 0 .88-.72 1.62-1.639 1.62-.899 0-1.639-.74-1.639-1.62m-9.452 10.32 2.279-.5c.06.78.639 1.5 1.798 1.5.88 0 1.299-.46 1.299-.98 0-.44-.299-.8-1.059-.96l-1.299-.3c-1.899-.42-2.758-1.56-2.758-2.94 0-1.76 1.559-3.22 3.677-3.22 2.798 0 3.738 1.78 3.858 2.84l-2.219.5c-.08-.58-.499-1.32-1.619-1.32-.699 0-1.259.42-1.259.98 0 .48.36.78.9.88l1.399.3c1.938.4 2.918 1.58 2.918 3.02 0 1.6-1.24 3.24-3.818 3.24-2.958 0-3.977-1.92-4.097-3.04m-7.989-3.3h4.397c-.04-.98-.679-1.94-2.198-1.94-1.379 0-2.139 1.04-2.199 1.94m4.657 2.56 2.218.66c-.499 1.7-2.058 3.12-4.477 3.12-2.698 0-5.076-1.94-5.076-5.26 0-3.14 2.318-5.18 4.837-5.18 3.037 0 4.856 1.94 4.856 5.1 0 .38-.04.78-.04.82h-7.035c.06 1.3 1.159 2.24 2.478 2.24 1.24 0 1.919-.62 2.239-1.5m-17.879.92h2.199c2.318 0 4.257-1.44 4.257-4.52s-1.919-4.54-4.237-4.54h-2.219zm2.299 2.56h-5.057V3.13h5.077c4.037 0 6.995 2.62 6.995 7.1s-2.978 7.08-7.015 7.08M180.998 4.53v2.94h1.979v2.36h-1.979v4.12c0 .86.4 1.14 1.159 1.14.32 0 .68-.04.82-.08v2.2c-.24.1-.72.24-1.499.24-1.919 0-3.118-1.14-3.118-3.04V9.83h-1.779V7.47h.5c1.039 0 1.519-.68 1.519-1.56V4.53zm-9.569 5.1c-1.359 0-2.499.98-2.499 2.76s1.16 2.78 2.519 2.78 2.038-.9 2.258-1.66l2.338.78c-.439 1.64-1.978 3.32-4.596 3.32-2.898 0-5.177-2.2-5.177-5.22 0-3.04 2.239-5.22 5.097-5.22 2.678 0 4.197 1.66 4.616 3.32l-2.378.8c-.24-.82-.859-1.66-2.178-1.66m-9.373 7.68c-.04-.2-.08-.66-.08-1.06-.54.92-1.679 1.32-2.718 1.32-2.379 0-3.738-1.74-3.738-3.88V7.47h2.658v5.68c0 1.1.56 1.98 1.799 1.98 1.179 0 1.859-.8 1.859-1.94V7.47h2.658v8.06c0 .76.06 1.44.1 1.78zm-9.001-14.48v12.7c0 .66.04 1.38.08 1.78h-2.538c-.04-.2-.1-.68-.1-1.14-.439.78-1.439 1.38-2.758 1.38-2.798 0-4.796-2.2-4.796-5.18 0-2.88 1.938-5.14 4.716-5.14 1.699 0 2.498.7 2.778 1.22V2.83zm-7.434 9.54c0 1.76 1.039 2.8 2.438 2.8 1.359 0 2.418-1.04 2.418-2.82 0-1.76-1.059-2.74-2.418-2.74s-2.438 1-2.438 2.76m-8.914 2.82c1.299 0 2.499-.94 2.499-2.8s-1.2-2.8-2.499-2.8-2.498.94-2.498 2.8c0 1.84 1.199 2.8 2.498 2.8m0-8.02c2.938 0 5.157 2.18 5.157 5.22 0 3.02-2.219 5.22-5.157 5.22s-5.156-2.2-5.156-5.22c0-3.04 2.218-5.22 5.156-5.22m-5.909.26v2.68c-.3-.06-.56-.08-.799-.08-1.359 0-2.539.66-2.539 2.78v4.5h-2.658V7.47h2.578v1.46c.6-1.3 1.959-1.54 2.798-1.54.22 0 .42.02.62.04m-14.624 2.16h2.178c1.379 0 2.219-.8 2.219-2.02 0-1.26-.84-2.04-2.219-2.04h-2.178zm2.518 2.38h-2.538v5.34h-2.758V3.13h5.296c2.798 0 4.657 1.86 4.657 4.42 0 2.58-1.859 4.42-4.657 4.42m-19.926 2.6 2.278-.5c.06.78.64 1.5 1.799 1.5.879 0 1.299-.46 1.299-.98 0-.44-.3-.8-1.059-.96l-1.299-.3c-1.899-.42-2.758-1.56-2.758-2.94 0-1.76 1.559-3.22 3.677-3.22 2.798 0 3.738 1.78 3.857 2.84l-2.218.5c-.08-.58-.5-1.32-1.619-1.32-.699 0-1.259.42-1.259.98 0 .48.36.78.899.88l1.399.3c1.939.4 2.918 1.58 2.918 3.02 0 1.6-1.239 3.24-3.817 3.24-2.958 0-3.977-1.92-4.097-3.04m-7.989-3.3h4.397c-.04-.98-.68-1.94-2.199-1.94-1.379 0-2.138 1.04-2.198 1.94m4.657 2.56 2.218.66c-.5 1.7-2.058 3.12-4.477 3.12-2.698 0-5.076-1.94-5.076-5.26 0-3.14 2.318-5.18 4.836-5.18 3.038 0 4.857 1.94 4.857 5.1 0 .38-.04.78-.04.82h-7.035c.06 1.3 1.16 2.24 2.478 2.24 1.24 0 1.919-.62 2.239-1.5m-9.162 3.48h-2.658V2.83h2.658zm-11.486-6.04h4.397c-.04-.98-.68-1.94-2.199-1.94-1.379 0-2.138 1.04-2.198 1.94m4.656 2.56 2.219.66c-.5 1.7-2.059 3.12-4.477 3.12-2.698 0-5.076-1.94-5.076-5.26 0-3.14 2.318-5.18 4.836-5.18 3.038 0 4.857 1.94 4.857 5.1 0 .38-.04.78-.04.82h-7.035c.06 1.3 1.159 2.24 2.478 2.24 1.24 0 1.919-.62 2.239-1.5Zm-18.94 4.02 2.398-.64c.18 1.08 1.04 1.86 2.299 1.86 1.679 0 2.618-.84 2.618-2.74v-.72c-.4.64-1.319 1.26-2.738 1.26-2.618 0-4.577-2.02-4.577-4.78 0-2.6 1.879-4.8 4.577-4.8 1.559 0 2.458.68 2.798 1.34V7.47h2.558v8.78c0 2.7-1.459 5.16-5.156 5.16-2.698 0-4.497-1.68-4.777-3.56m5.037-3.26c1.359 0 2.318-.98 2.318-2.5s-1.04-2.48-2.318-2.48c-1.32 0-2.359.96-2.359 2.48 0 1.54.98 2.5 2.359 2.5m-13.071-2.94v5.66H49.81V7.47h2.578v1.22c.6-1.02 1.779-1.48 2.838-1.48 2.439 0 3.558 1.74 3.558 3.9v6.2h-2.658v-5.74c0-1.1-.54-1.96-1.82-1.96-1.158 0-1.838.9-1.838 2.04m-6.949 5.66-1.18-3.24h-5.755l-1.18 3.24h-2.918l5.437-14.18h3.197l5.397 14.18zM41.462 6.19l-1.96 5.36h3.918l-1.959-5.36Zm-20.186 8.38 2.278-.5c.06.78.64 1.5 1.799 1.5.88 0 1.299-.46 1.299-.98 0-.44-.3-.8-1.06-.96l-1.298-.3c-1.9-.42-2.759-1.56-2.759-2.94 0-1.76 1.56-3.22 3.678-3.22 2.798 0 3.737 1.78 3.857 2.84l-2.218.5c-.08-.58-.5-1.32-1.62-1.32-.699 0-1.258.42-1.258.98 0 .48.36.78.899.88l1.4.3c1.938.4 2.917 1.58 2.917 3.02 0 1.6-1.24 3.24-3.817 3.24-2.958 0-3.978-1.92-4.097-3.04m-6.136.62c1.3 0 2.498-.94 2.498-2.8s-1.199-2.8-2.498-2.8-2.498.94-2.498 2.8c0 1.84 1.2 2.8 2.498 2.8m0-8.02c2.938 0 5.157 2.18 5.157 5.22 0 3.02-2.219 5.22-5.157 5.22s-5.156-2.2-5.156-5.22c0-3.04 2.218-5.22 5.156-5.22M9.074 17.31H0V3.13h2.758v11.54h6.316z"/><path fill="#F76363" fill-rule="evenodd" d="M258.93 16.32h7.674V24h-7.674zm1.713 1.715v4.25h4.248v-4.25z" clip-rule="evenodd"/><path fill="#60DBDA" fill-rule="evenodd" d="M268.283 1.69a2.389 2.389 0 1 0 .001 4.778 2.389 2.389 0 0 0-.001-4.777Zm-4.077 2.39a4.078 4.078 0 1 1 8.154 0 4.078 4.078 0 1 1-8.154 0" clip-rule="evenodd"/><path fill="#F8DA4D" fill-rule="evenodd" d="m278.356 8.64 4.557 8.16h-9.114zm-2.128 6.732h4.256l-2.128-3.81z" clip-rule="evenodd"/></svg>