<svg width="212" height="120" viewBox="0 0 212 120" fill="none" xmlns="http://www.w3.org/2000/svg">
<path d="M20.8446 7.74454L15.9493 9.24603C15.6729 7.70502 14.4096 5.29473 10.8566 5.29473C8.21151 5.29473 6.47446 6.99379 6.47446 8.8509C6.47446 10.3919 7.46142 11.6168 9.5143 12.0119L13.4227 12.7627C18.5154 13.7505 21.2394 17.0696 21.2394 21.0209C21.2394 25.3278 17.6468 29.6742 11.1329 29.6742C3.71097 29.6742 0.434262 24.8932 0 20.9023L5.05324 19.5589C5.29011 22.3248 7.22455 24.8141 11.1724 24.8141C14.0938 24.8141 15.7124 23.3521 15.7124 21.3765C15.7124 19.7565 14.4886 18.4921 12.3173 18.0574L8.4089 17.2672C3.94784 16.3584 1.06592 13.4739 1.06592 9.24603C1.06592 4.2674 5.52698 0.474156 10.8171 0.474156C17.6074 0.474156 20.2129 4.5835 20.8446 7.74454Z" fill="white"/>
<path d="M30.3457 29.0815H25.0951V9.64116H30.3457V29.0815ZM24.4634 3.27957C24.4634 1.46198 25.9241 0 27.7007 0C29.5167 0 30.9379 1.46198 30.9379 3.27957C30.9379 5.01814 29.5167 6.48012 27.7007 6.48012C25.9241 6.48012 24.4634 5.01814 24.4634 3.27957Z" fill="white"/>
<path d="M40.9454 17.8994V29.0815H35.6948V9.64116H40.7875V12.0514C41.9719 10.0363 44.3011 9.12749 46.3934 9.12749C51.2098 9.12749 53.4206 12.5651 53.4206 16.8325V29.0815H48.17V17.7413C48.17 15.5681 47.1041 13.869 44.5774 13.869C42.2877 13.869 40.9454 15.6471 40.9454 17.8994Z" fill="white"/>
<path d="M57.0956 30.1484L61.833 28.884C62.1883 31.0177 63.8858 32.5587 66.373 32.5587C69.6892 32.5587 71.5447 30.8991 71.5447 27.1454V25.7229C70.7551 26.9873 68.9391 28.2122 66.1361 28.2122C60.9644 28.2122 57.0956 24.2214 57.0956 18.7686C57.0956 13.632 60.8065 9.28554 66.1361 9.28554C69.2154 9.28554 70.992 10.629 71.6631 11.9329V9.64116H76.7163V26.9873C76.7163 32.3216 73.8344 37.1817 66.5309 37.1817C61.2013 37.1817 57.6483 33.8626 57.0956 30.1484ZM67.0441 23.7078C69.7287 23.7078 71.6236 21.7716 71.6236 18.7686C71.6236 15.7657 69.5707 13.869 67.0441 13.869C64.4385 13.869 62.3857 15.7657 62.3857 18.7686C62.3857 21.8111 64.3201 23.7078 67.0441 23.7078Z" fill="white"/>
<path d="M80.3839 23.7868C80.3839 20.3097 82.95 18.3735 86.1872 17.8994L90.9641 17.1881C92.0695 17.0301 92.4248 16.4769 92.4248 15.8052C92.4248 14.4222 91.3589 13.2763 89.1481 13.2763C86.8583 13.2763 85.595 14.7383 85.4371 16.4374L80.7787 15.4496C81.0945 12.4071 83.8975 9.04846 89.1086 9.04846C95.2673 9.04846 97.557 12.5256 97.557 16.4374V25.9995C97.557 27.0269 97.6754 28.4098 97.7939 29.0815H92.9775C92.8591 28.5679 92.7801 27.501 92.7801 26.7503C91.7931 28.2913 89.9377 29.6347 87.0557 29.6347C82.9105 29.6347 80.3839 26.8293 80.3839 23.7868ZM88.1611 25.7229C90.3719 25.7229 92.4248 24.6561 92.4248 21.2184V20.3492L88.0427 21.0209C86.7004 21.2184 85.6345 21.9692 85.6345 23.4707C85.6345 24.6166 86.4636 25.7229 88.1611 25.7229Z" fill="white"/>
<path d="M107.828 36.589H102.577V9.64116H107.67V12.0119C108.539 10.5104 110.71 9.20652 113.631 9.20652C119.316 9.20652 122.593 13.5529 122.593 19.3218C122.593 25.2093 118.921 29.5557 113.434 29.5557C110.749 29.5557 108.775 28.4888 107.828 27.1849V36.589ZM117.421 19.3613C117.421 15.9237 115.289 13.9086 112.605 13.9086C109.92 13.9086 107.749 15.9237 107.749 19.3613C107.749 22.799 109.92 24.8536 112.605 24.8536C115.289 24.8536 117.421 22.8385 117.421 19.3613Z" fill="white"/>
<path d="M135.203 24.8932C137.769 24.8932 140.137 23.036 140.137 19.3613C140.137 15.6866 137.769 13.8295 135.203 13.8295C132.636 13.8295 130.268 15.6866 130.268 19.3613C130.268 22.9965 132.636 24.8932 135.203 24.8932ZM135.203 9.04846C141.006 9.04846 145.388 13.3554 145.388 19.3613C145.388 25.3278 141.006 29.6742 135.203 29.6742C129.399 29.6742 125.017 25.3278 125.017 19.3613C125.017 13.3554 129.399 9.04846 135.203 9.04846Z" fill="white"/>
<path d="M161.104 9.56213V14.8569C160.512 14.7383 159.998 14.6988 159.525 14.6988C156.84 14.6988 154.511 16.0027 154.511 20.1911V29.0815H149.26V9.64116H154.353V12.5256C155.537 9.95726 158.222 9.48311 159.88 9.48311C160.314 9.48311 160.709 9.52262 161.104 9.56213Z" fill="white"/>
<path d="M168.162 17.1486H176.847C176.768 15.2125 175.505 13.3159 172.504 13.3159C169.78 13.3159 168.28 15.3705 168.162 17.1486ZM177.36 22.2063L181.742 23.5102C180.755 26.8688 177.676 29.6742 172.899 29.6742C167.569 29.6742 162.872 25.8415 162.872 19.2823C162.872 13.0788 167.451 9.04846 172.425 9.04846C178.426 9.04846 182.019 12.8812 182.019 19.1243C182.019 19.875 181.94 20.6653 181.94 20.7443H168.043C168.162 23.3126 170.333 25.1697 172.939 25.1697C175.386 25.1697 176.728 23.9448 177.36 22.2063Z" fill="white"/>
<path d="M7.5009 53.615H11.804C14.5281 53.615 16.1861 52.0345 16.1861 49.6242C16.1861 47.1348 14.5281 45.5938 11.804 45.5938H7.5009V53.615ZM12.4752 58.317H7.46142V68.867H2.0134V40.8523H12.4752C18.0022 40.8523 21.6736 44.527 21.6736 49.5847C21.6736 54.6818 18.0022 58.317 12.4752 58.317Z" fill="white"/>
<path d="M36.6687 49.3476V54.6423C36.0766 54.5238 35.5633 54.4843 35.0896 54.4843C32.4051 54.4843 30.0758 55.7882 30.0758 59.9766V68.867H24.8252V49.4266H29.9179V52.311C31.1023 49.7427 33.7868 49.2685 35.4449 49.2685C35.8792 49.2685 36.2739 49.3081 36.6687 49.3476Z" fill="white"/>
<path d="M48.6218 64.6786C51.1879 64.6786 53.5566 62.8215 53.5566 59.1468C53.5566 55.4721 51.1879 53.615 48.6218 53.615C46.0557 53.615 43.687 55.4721 43.687 59.1468C43.687 62.782 46.0557 64.6786 48.6218 64.6786ZM48.6218 48.8339C54.4251 48.8339 58.8072 53.1408 58.8072 59.1468C58.8072 65.1132 54.4251 69.4597 48.6218 69.4597C42.8185 69.4597 38.4364 65.1132 38.4364 59.1468C38.4364 53.1408 42.8185 48.8339 48.6218 48.8339Z" fill="white"/>
<path d="M81.195 40.2596V65.3503C81.195 66.6542 81.2739 68.0767 81.3529 68.867H76.3391C76.2602 68.4718 76.1417 67.5235 76.1417 66.6147C75.2732 68.1557 73.2993 69.3411 70.6937 69.3411C65.1667 69.3411 61.2189 64.9947 61.2189 59.1073C61.2189 53.4174 65.0483 48.9524 70.5358 48.9524C73.8915 48.9524 75.4706 50.3354 76.0233 51.3627V40.2596H81.195ZM66.509 59.1073C66.509 62.5844 68.5619 64.6391 71.3254 64.6391C74.0099 64.6391 76.1022 62.5844 76.1022 59.0678C76.1022 55.5906 74.0099 53.6545 71.3254 53.6545C68.6408 53.6545 66.509 55.6301 66.509 59.1073Z" fill="white"/>
<path d="M99.2536 68.867C99.1747 68.4718 99.0957 67.563 99.0957 66.7728C98.0298 68.5904 95.7795 69.3806 93.7267 69.3806C89.0287 69.3806 86.3442 65.943 86.3442 61.7151V49.4266H91.5948V60.6483C91.5948 62.8215 92.7002 64.5601 95.1479 64.5601C97.4771 64.5601 98.8194 62.9795 98.8194 60.7273V49.4266H104.07V65.3503C104.07 66.8518 104.188 68.1952 104.267 68.867H99.2536Z" fill="white"/>
<path d="M118.049 53.694C115.364 53.694 113.114 55.6301 113.114 59.1468C113.114 62.6634 115.404 64.6391 118.088 64.6391C120.773 64.6391 122.115 62.861 122.549 61.3595L127.168 62.9005C126.3 66.1406 123.26 69.4597 118.088 69.4597C112.364 69.4597 107.863 65.1132 107.863 59.1468C107.863 53.1408 112.285 48.8339 117.93 48.8339C123.22 48.8339 126.221 52.1135 127.05 55.3931L122.352 56.9736C121.878 55.3535 120.654 53.694 118.049 53.694Z" fill="white"/>
<path d="M137.232 43.6182V49.4266H141.14V54.0891H137.232V62.2288C137.232 63.9278 138.021 64.481 139.521 64.481C140.153 64.481 140.864 64.402 141.14 64.323V68.6694C140.666 68.867 139.719 69.1436 138.179 69.1436C134.389 69.1436 132.021 66.8913 132.021 63.1376V54.0891H128.507V49.4266H129.494C131.547 49.4266 132.494 48.0832 132.494 46.3446V43.6182H137.232Z" fill="white"/>
<path d="M7.46142 103.595H11.804C16.3835 103.595 20.2129 100.75 20.2129 94.6648C20.2129 88.5798 16.423 85.6954 11.8435 85.6954H7.46142V103.595ZM12.0014 108.652H2.0134V80.6377H12.0409C20.0156 80.6377 25.8584 85.8139 25.8584 94.6648C25.8584 103.516 19.9761 108.652 12.0014 108.652Z" fill="white"/>
<path d="M33.8593 96.7195H42.5445C42.4656 94.7834 41.2023 92.8867 38.2019 92.8867C35.4779 92.8867 33.9777 94.9414 33.8593 96.7195ZM43.0578 101.777L47.4399 103.081C46.4529 106.44 43.3736 109.245 38.5967 109.245C33.2671 109.245 28.5692 105.412 28.5692 98.8532C28.5692 92.6497 33.1487 88.6193 38.123 88.6193C44.1237 88.6193 47.7162 92.4521 47.7162 98.6952C47.7162 99.4459 47.6372 100.236 47.6372 100.315H33.7408C33.8593 102.884 36.0306 104.741 38.6362 104.741C41.0838 104.741 42.4261 103.516 43.0578 101.777Z" fill="white"/>
<path d="M49.9206 103.239L54.4211 102.251C54.5396 103.792 55.6844 105.215 57.9742 105.215C59.7112 105.215 60.5403 104.306 60.5403 103.279C60.5403 102.409 59.9481 101.698 58.4479 101.382L55.8818 100.789C52.1314 99.9596 50.4338 97.7073 50.4338 94.9809C50.4338 91.5038 53.5131 88.6193 57.6978 88.6193C63.2248 88.6193 65.0803 92.136 65.3172 94.2302L60.9351 95.218C60.7772 94.0721 59.9481 92.6102 57.7373 92.6102C56.3556 92.6102 55.2502 93.4399 55.2502 94.5463C55.2502 95.4946 55.9608 96.0873 57.0267 96.2849L59.7902 96.8775C63.6196 97.6678 65.554 99.9991 65.554 102.844C65.554 106.005 63.1064 109.245 58.0137 109.245C52.1709 109.245 50.1575 105.452 49.9206 103.239Z" fill="white"/>
<path d="M74.7541 108.652H69.5035V89.212H74.7541V108.652ZM68.8718 82.8505C68.8718 81.0329 70.3326 79.5709 72.1091 79.5709C73.9251 79.5709 75.3463 81.0329 75.3463 82.8505C75.3463 84.589 73.9251 86.051 72.1091 86.051C70.3326 86.051 68.8718 84.589 68.8718 82.8505Z" fill="white"/>
<path d="M78.7215 109.719L83.4589 108.455C83.8142 110.589 85.5118 112.13 87.9989 112.13C91.3151 112.13 93.1706 110.47 93.1706 106.716V105.294C92.381 106.558 90.565 107.783 87.762 107.783C82.5904 107.783 78.7215 103.792 78.7215 98.3395C78.7215 93.2028 82.4324 88.8564 87.762 88.8564C90.8413 88.8564 92.6179 90.1999 93.289 91.5038V89.212H98.3422V106.558C98.3422 111.892 95.4603 116.753 88.1568 116.753C82.8272 116.753 79.2742 113.433 78.7215 109.719ZM88.67 103.279C91.3546 103.279 93.2495 101.343 93.2495 98.3395C93.2495 95.3365 91.1966 93.4399 88.67 93.4399C86.0645 93.4399 84.0116 95.3365 84.0116 98.3395C84.0116 101.382 85.946 103.279 88.67 103.279Z" fill="white"/>
<path d="M108.638 97.4702V108.652H103.387V89.212H108.48V91.6223C109.664 89.6072 111.993 88.6984 114.086 88.6984C118.902 88.6984 121.113 92.136 121.113 96.4034V108.652H115.862V97.3122C115.862 95.139 114.796 93.4399 112.27 93.4399C109.98 93.4399 108.638 95.218 108.638 97.4702Z" fill="white"/>
<path fill-rule="evenodd" clip-rule="evenodd" d="M170.664 54.9106C168.219 54.9106 166.238 56.8937 166.238 59.3388C166.238 61.7839 168.219 63.767 170.664 63.767C173.109 63.767 175.09 61.7839 175.09 59.3388C175.09 56.8937 173.109 54.9106 170.664 54.9106ZM163.107 59.3388C163.107 55.1619 166.491 51.7769 170.664 51.7769C174.837 51.7769 178.221 55.1619 178.221 59.3388C178.221 63.5157 174.837 66.9008 170.664 66.9008C166.491 66.9008 163.107 63.5157 163.107 59.3388Z" fill="white"/>
<path fill-rule="evenodd" clip-rule="evenodd" d="M142.959 105.187H156.984V119.221H142.959V105.187ZM146.09 108.321V116.088H153.853V108.321H146.09Z" fill="white"/>
<path fill-rule="evenodd" clip-rule="evenodd" d="M201.7 82.8381L211.723 100.745H191.678L201.7 82.8381ZM197.02 97.6111H206.38L201.7 89.2501L197.02 97.6111Z" fill="white"/>
</svg>
