<svg xmlns="http://www.w3.org/2000/svg" xmlns:xlink="http://www.w3.org/1999/xlink" viewBox="0 0 116.945 39.827" overflow="visible"><g><path d="M 0 0 L 0 39.827 L 116.945 39.827 L 116.945 0 Z" fill="transparent"></path><path d="M 50.155 8.425 L 54.745 8.425 L 65.341 22.355 L 65.341 8.425 L 70.253 8.425 L 70.253 31.048 L 66.021 31.048 L 55.065 16.666 L 55.065 31.048 L 50.155 31.048 L 50.155 8.425 M 81.432 22.128 L 72.74 8.425 L 78.558 8.425 L 83.955 17.508 L 89.448 8.425 L 95.101 8.425 L 86.41 22.032 L 86.41 31.048 L 81.432 31.048 L 81.432 22.128 M 97.234 21.353 L 97.234 8.425 L 102.212 8.425 L 102.212 21.224 C 102.212 24.907 104.049 26.814 107.09 26.814 C 110.125 26.814 111.97 24.971 111.97 21.387 L 111.97 8.425 L 116.945 8.425 L 116.945 21.191 C 116.945 28.041 113.098 31.403 107.022 31.403 C 100.95 31.403 97.234 28.011 97.234 21.353" fill="rgb(79,41,135)"></path><path d="M 4.336 37.185 L 34.095 37.185 L 34.095 2.766 L 4.336 2.766 Z" fill="rgb(255,255,255)"></path><path d="M 17.55 20.772 C 13.468 18.337 13.877 14.858 15.568 12.302 C 15.605 12.248 15.616 12.159 15.605 12.055 C 15.534 11.447 14.87 9.909 14.593 9.491 C 14.523 9.385 14.462 9.393 14.455 9.469 C 14.433 10.164 13.641 11.907 12.429 13.915 C 11.141 16.051 11.139 20.688 17.532 20.869 C 17.593 20.87 17.61 20.808 17.55 20.772 Z M 18.642 20.593 C 16.202 15.379 21.083 12.012 21.878 11.282 C 21.99 11.179 21.962 11.085 21.964 10.968 C 21.964 9.326 21.024 6.671 20.716 6.291 C 20.672 6.232 20.635 6.258 20.617 6.317 C 20.201 7.935 17.98 10.346 17.532 10.874 C 13.764 15.355 14.626 18.083 18.56 20.656 C 18.611 20.688 18.671 20.652 18.642 20.593 Z M 19.437 20.371 C 20.59 14.841 25.091 14.706 25.493 13.657 C 26.121 12.021 24.972 9.117 24.678 8.773 C 24.65 8.736 24.609 8.76 24.594 8.791 C 23.984 10.13 22.995 11.406 22.273 11.992 C 21.251 12.815 17.342 15.712 19.341 20.375 C 19.364 20.433 19.423 20.418 19.437 20.371 Z M 20.237 20.851 C 27.524 21.115 28.04 14.474 28.069 11.989 C 28.072 11.845 28 11.832 27.965 11.933 C 27.749 12.452 26.802 14.304 24.174 15.429 C 21.828 16.436 20.417 18.72 20.171 20.772 C 20.16 20.823 20.203 20.851 20.237 20.851 Z M 21.895 23.34 L 21.895 21.668 L 16.147 21.668 L 16.147 23.34 Z M 18.535 35.171 C 18.581 35.451 19.186 35.588 19.321 35.171 L 20.713 24.139 L 17.331 24.139 L 18.535 35.171 Z M 39.824 39.827 L 0 39.827 L 0 0 L 39.824 0 L 39.824 39.827" fill="rgb(79,41,135)"></path></g></svg>