<svg xmlns="http://www.w3.org/2000/svg" xmlns:xlink="http://www.w3.org/1999/xlink" viewBox="0 0 75 24.016" overflow="visible"><path d="M 53.439 1.605 L 53.439 6.539 L 50.471 6.539 L 50.471 12.511 L 53.439 12.511 L 53.439 23.622 L 60.442 23.622 L 60.442 12.464 L 62.471 12.464 L 62.471 6.539 L 60.442 6.539 L 60.442 1.605 Z M 65.076 1.605 L 65.076 6.539 L 63.292 6.539 L 63.292 12.511 L 65.076 12.511 L 65.076 23.622 L 72.079 23.622 L 72.079 12.464 L 75 12.464 L 75 6.539 L 72.079 6.539 L 72.079 1.605 Z M 19.405 23.622 L 26.455 23.622 L 26.455 17.249 C 26.455 16.226 26.55 15.391 26.747 14.723 C 27.142 13.346 28.161 12.645 29.897 12.63 C 30.434 12.63 30.971 12.716 31.484 12.873 L 31.484 6.264 C 31.247 6.209 31.011 6.177 30.766 6.177 C 28.863 6.177 27.545 6.531 26.289 8.553 L 26.289 6.539 L 19.413 6.539 L 19.413 23.622 Z M 42.647 6.539 L 42.647 8.42 C 41.732 6.988 39.797 6.122 38.163 6.122 C 34.326 6.122 31.603 9.529 31.603 15.155 C 31.603 20.585 34.303 24.016 38.116 24.016 C 39.971 24.016 41.7 23.347 42.647 21.576 L 42.647 23.622 L 49.634 23.622 L 49.634 6.539 Z M 0 23.622 L 7.524 23.622 L 7.524 16.729 L 9.766 16.706 C 10.879 16.706 12.639 16.588 13.516 16.359 C 16.642 15.541 18.884 12.881 18.884 8.561 C 18.884 5.571 17.882 3.179 16.263 1.778 C 14.795 0.504 12.789 0 8.842 0 L 0 0 Z M 8.218 6.169 L 8.818 6.169 C 10.326 6.169 11.266 6.681 11.266 8.31 C 11.266 9.844 10.429 10.552 8.787 10.552 L 7.476 10.552 L 7.476 6.169 Z M 38.455 15.069 C 38.455 13.865 39.434 12.889 40.642 12.889 C 41.85 12.889 42.829 13.865 42.829 15.069 C 42.829 16.273 41.85 17.249 40.642 17.249 C 39.434 17.249 38.455 16.273 38.455 15.069" fill="rgb(255,185,0)"></path></svg>