<svg xmlns="http://www.w3.org/2000/svg" xmlns:xlink="http://www.w3.org/1999/xlink" viewBox="0 0 78.456 40" overflow="visible"><path d="M 48.856 0 C 47.312 0 46.224 1.088 46.224 2.624 C 46.224 4.16 47.312 5.248 48.856 5.248 C 49.824 5.248 50.624 6.048 50.624 7.016 L 50.624 37.36 C 50.624 38.904 51.712 39.992 53.248 39.992 C 54.784 39.992 55.88 38.904 55.88 37.36 L 55.88 7.024 C 55.88 3.136 52.736 0 48.856 0 M 75.824 30.344 C 74.28 30.344 73.192 31.432 73.192 32.968 C 73.192 33.936 72.392 34.736 71.424 34.736 L 66.384 34.736 C 65.416 34.736 64.616 33.936 64.616 32.968 L 64.616 19.368 L 70.024 19.368 C 71.568 19.368 72.656 18.28 72.656 16.736 C 72.656 15.192 71.568 14.104 70.024 14.104 L 64.616 14.104 L 64.616 9.472 C 64.616 7.928 63.528 6.848 61.984 6.848 C 60.44 6.848 59.36 7.936 59.36 9.472 L 59.36 32.968 C 59.36 36.856 62.504 40 66.384 40 L 71.424 40 C 75.312 40 78.456 36.856 78.456 32.968 C 78.456 31.424 77.368 30.344 75.824 30.344 M 15.912 22.912 L 7.024 22.912 C 6.056 22.912 5.256 22.112 5.256 21.144 C 5.256 20.176 6.056 19.376 7.024 19.376 L 14.712 19.376 C 18.6 19.376 21.736 16.232 21.736 12.352 C 21.736 10.808 20.648 9.728 19.112 9.728 C 17.576 9.728 16.48 10.816 16.48 12.352 C 16.48 13.32 15.68 14.12 14.712 14.12 L 7.024 14.12 C 3.136 14.12 0 17.264 0 21.144 C 0 25.024 3.144 28.168 7.024 28.168 L 15.912 28.168 C 16.88 28.168 17.68 28.968 17.68 29.936 L 17.68 32.968 C 17.68 33.936 16.88 34.736 15.912 34.736 L 7.112 34.736 C 6.144 34.736 5.344 33.936 5.344 32.968 C 5.344 31.424 4.256 30.344 2.712 30.344 C 1.168 30.344 0.088 31.432 0.088 32.968 C 0.088 36.856 3.232 40 7.112 40 L 15.912 40 C 19.8 40 22.936 36.856 22.936 32.968 L 22.936 29.936 C 22.936 26.048 19.792 22.904 15.912 22.904 M 40.688 34.744 L 31.8 34.744 C 30.832 34.744 30.032 33.944 30.032 32.976 L 30.032 29.944 C 30.032 28.976 30.832 28.176 31.8 28.176 L 40.688 28.176 C 41.656 28.176 42.456 28.976 42.456 29.944 L 42.456 32.976 C 42.456 33.944 41.656 34.744 40.688 34.744 M 40.688 14.112 L 32.904 14.112 C 31.936 14.112 31.128 13.312 31.128 12.344 C 31.128 10.8 30.04 9.72 28.504 9.72 C 26.968 9.72 25.872 10.808 25.872 12.344 C 25.872 16.232 29.016 19.368 32.904 19.368 L 40.688 19.368 C 41.656 19.368 42.456 20.168 42.456 21.136 C 42.456 22.104 41.656 22.904 40.688 22.904 L 31.8 22.904 C 27.912 22.904 24.768 26.048 24.768 29.936 L 24.768 32.968 C 24.768 36.856 27.912 40 31.8 40 L 40.688 40 C 44.576 40 47.712 36.856 47.712 32.968 L 47.712 29.936 C 47.712 28.272 47.136 26.744 46.168 25.536 C 47.17 24.289 47.715 22.736 47.712 21.136 C 47.712 17.248 44.568 14.112 40.688 14.112" fill="rgb(0,173,216)"></path></svg>