<svg xmlns="http://www.w3.org/2000/svg" xmlns:xlink="http://www.w3.org/1999/xlink" viewBox="0 0 40 40" overflow="visible"><g><path d="M 31.539 18.6 C 31.539 17.512 30.665 16.909 29.443 16.909 L 28 16.909 L 28 20.286 L 29.443 20.286 C 30.678 20.286 31.539 19.596 31.539 18.627 Z" fill="rgb(194,86,40)"></path><path d="M 13.552 16.248 C 11.749 14.83 6.571 14.634 6.827 17.883 C 6.915 18.991 7.745 19.612 8.674 20.036 C 9.443 20.388 12.214 20.972 12.277 21.889 C 12.383 23.407 8.819 23.276 8.266 22.127 L 6.831 22.847 C 7.364 24.18 9.462 24.736 10.784 24.66 C 12.712 24.548 14.52 23.078 13.688 21.022 C 12.994 19.304 10.502 19.201 9.095 18.433 C 8.507 18.113 8.062 17.474 8.852 17.093 C 9.974 16.551 11.665 17.051 12.726 17.562 L 12.727 17.562 Z M 19.994 17.594 C 18.694 17.594 17.641 18.648 17.641 19.947 C 17.641 21.246 18.694 22.3 19.994 22.3 C 21.293 22.3 22.346 21.246 22.346 19.947 C 22.346 18.648 21.293 17.594 19.994 17.594 Z" fill="rgb(255,255,255)"></path><path d="M 29.895 15.273 C 32.037 15.273 33.161 17.299 33.193 18.539 L 33.194 18.597 L 33.194 18.6 L 33.193 18.663 C 33.154 20.059 31.903 21.909 29.895 21.909 L 27.996 21.909 L 27.996 24.564 L 26.364 24.564 L 26.364 15.273 Z M 31.535 18.6 C 31.535 17.512 30.661 16.909 29.44 16.909 L 27.996 16.909 L 27.996 20.286 L 29.44 20.286 C 30.674 20.286 31.535 19.596 31.535 18.627 Z" fill="rgb(255,255,255)"></path><path d="M 20 0 C 31.046 0 40 8.954 40 20 C 40 31.046 31.046 40 20 40 C 8.954 40 0 31.046 0 20 C 0 8.954 8.954 0 20 0 Z M 6.827 17.883 C 6.915 18.991 7.745 19.612 8.674 20.036 C 9.443 20.388 12.214 20.972 12.277 21.889 C 12.383 23.407 8.819 23.276 8.266 22.127 L 6.831 22.847 C 7.364 24.18 9.462 24.736 10.784 24.66 C 12.712 24.548 14.52 23.078 13.688 21.022 C 12.994 19.304 10.502 19.201 9.095 18.433 C 8.507 18.113 8.062 17.474 8.852 17.093 C 9.974 16.551 11.665 17.051 12.726 17.562 L 12.727 17.562 L 13.552 16.248 C 11.749 14.83 6.571 14.634 6.827 17.883 Z M 28.003 24.584 L 28.003 21.93 L 29.901 21.93 C 31.91 21.93 33.161 20.08 33.199 18.684 L 33.2 18.621 L 33.2 18.618 L 33.199 18.56 C 33.167 17.319 32.044 15.293 29.901 15.293 L 26.37 15.293 L 26.37 24.584 Z M 19.994 22.3 C 21.293 22.3 22.346 21.246 22.346 19.947 C 22.346 18.648 21.293 17.594 19.994 17.594 C 18.694 17.594 17.641 18.648 17.641 19.947 C 17.641 21.246 18.694 22.3 19.994 22.3 Z" fill="rgb(194,86,40)"></path></g></svg>