<svg xmlns="http://www.w3.org/2000/svg" xmlns:xlink="http://www.w3.org/1999/xlink" viewBox="0 0 100.013 19.975" overflow="visible"><path d="M 7.393 6.542 L 7.492 6.915 L 7.044 7.214 C 6.696 7.463 6.497 7.761 6.497 8.109 C 6.497 8.408 6.596 8.731 6.77 9.279 L 8.687 15.299 L 10.429 10.547 L 9.857 9.005 C 9.508 8.035 9.135 7.413 8.563 6.915 L 8.662 6.542 C 10.977 6.692 13.068 6.692 15.383 6.542 L 15.482 6.915 L 14.96 7.239 C 14.611 7.463 14.462 7.687 14.462 8.06 C 14.462 8.358 14.561 8.706 14.736 9.229 L 16.727 15.299 L 18.32 11.095 C 18.519 10.547 18.594 10.149 18.594 9.677 C 18.594 8.756 18.046 7.886 16.876 6.915 L 16.976 6.542 C 18.643 6.667 20.311 6.667 21.979 6.542 L 22.078 6.915 C 20.983 7.91 20.311 8.93 19.564 10.871 L 16.229 19.577 C 15.408 19.527 14.561 19.527 13.74 19.577 L 10.977 12.09 L 8.239 19.577 C 7.393 19.527 6.497 19.527 5.65 19.577 L 1.643 9.104 C 1.12 7.761 0.846 7.413 0 6.915 L 0.1 6.542 C 2.564 6.692 4.928 6.692 7.393 6.542 Z M 28.276 19.975 C 23.995 19.975 21.282 17.239 21.282 13.085 C 21.282 8.93 24.169 6.194 28.351 6.194 C 32.234 6.194 34.922 8.458 35.32 12.214 L 26.335 12.214 C 26.484 15.323 27.953 16.642 30.566 16.642 C 32.11 16.642 33.578 16.144 34.723 15.274 L 35.096 15.547 C 34.026 18.284 31.462 19.975 28.276 19.975 Z M 26.31 11.244 L 30.566 11.244 C 30.367 8.109 29.521 7.114 28.376 7.114 C 27.106 7.114 26.36 8.333 26.31 11.244 Z M 42.141 6.542 L 42.24 6.915 L 41.792 7.214 C 41.444 7.463 41.245 7.761 41.245 8.109 C 41.245 8.408 41.344 8.731 41.518 9.279 L 43.435 15.299 L 45.177 10.547 L 44.605 9.005 C 44.256 8.035 43.883 7.413 43.311 6.915 L 43.41 6.542 C 45.725 6.692 47.816 6.692 50.131 6.542 L 50.23 6.915 L 49.708 7.239 C 49.359 7.463 49.21 7.687 49.21 8.06 C 49.21 8.358 49.309 8.706 49.484 9.229 L 51.475 15.299 L 53.068 11.095 C 53.267 10.547 53.342 10.149 53.342 9.677 C 53.342 8.756 52.794 7.886 51.624 6.915 L 51.724 6.542 C 53.391 6.667 55.059 6.667 56.727 6.542 L 56.826 6.915 C 55.731 7.91 55.059 8.93 54.312 10.871 L 50.977 19.577 C 50.156 19.527 49.309 19.527 48.488 19.577 L 45.725 12.09 L 42.987 19.577 C 42.141 19.527 41.245 19.527 40.398 19.577 L 36.391 9.104 C 35.868 7.761 35.594 7.413 34.748 6.915 L 34.848 6.542 C 37.312 6.692 39.676 6.692 42.141 6.542 Z M 63.497 6.194 C 67.828 6.194 70.965 8.93 70.965 13.085 C 70.965 17.239 67.779 19.975 63.447 19.975 C 59.116 19.975 55.98 17.239 55.98 13.085 C 55.98 8.93 59.166 6.194 63.497 6.194 Z M 61.182 12.587 C 61.182 16.766 61.929 19.005 63.597 19.005 C 64.941 19.005 65.762 17.91 65.762 13.582 C 65.762 9.254 65.016 7.164 63.348 7.164 C 62.004 7.164 61.182 8.259 61.182 12.587 Z M 71.238 19.602 L 71.139 19.229 L 72.11 18.706 C 72.807 18.333 72.981 18.01 72.981 17.164 L 72.981 9.975 C 72.981 8.881 72.856 8.607 72.11 8.234 L 71.189 7.786 L 71.189 7.413 L 72.458 7.239 C 74.2 6.99 75.993 6.617 77.386 6.244 L 77.511 6.343 L 77.511 9.751 C 78.133 7.313 79.527 6.169 81.17 6.169 C 82.614 6.169 83.559 7.09 83.559 8.333 C 83.559 9.577 82.688 10.398 81.518 10.398 C 80.448 10.398 79.9 9.851 79.079 9.851 C 78.183 9.851 77.511 10.348 77.511 12.239 L 77.511 17.189 C 77.511 18.035 77.685 18.358 78.407 18.706 L 79.452 19.229 L 79.353 19.602 C 76.665 19.453 73.927 19.453 71.238 19.602 Z M 89.434 12.736 L 92.645 10 C 93.292 9.428 93.541 9.104 93.541 8.706 C 93.541 8.308 93.317 8.01 92.57 7.488 L 91.724 6.915 L 91.823 6.542 C 94.113 6.692 96.553 6.692 98.843 6.542 L 98.942 6.915 C 97.523 7.562 96.503 8.184 95.209 9.254 L 93.292 10.846 L 98.295 17.811 C 98.793 18.483 99.266 18.856 100.013 19.229 L 99.913 19.602 C 97.474 19.453 94.711 19.453 92.271 19.602 L 92.172 19.229 C 93.118 18.856 93.342 18.657 93.342 18.333 C 93.342 18.109 93.242 17.935 92.993 17.562 L 90.106 13.483 L 89.384 14.08 L 89.384 17.189 C 89.384 18.035 89.558 18.358 90.28 18.806 L 90.977 19.229 L 90.877 19.602 C 88.438 19.453 85.65 19.453 83.211 19.602 L 83.111 19.229 L 84.082 18.706 C 84.779 18.333 84.953 18.01 84.953 17.164 L 84.953 3.731 C 84.953 2.637 84.829 2.363 84.082 1.99 L 83.161 1.542 L 83.161 1.169 L 84.431 0.995 C 86.173 0.746 87.94 0.373 89.309 0 L 89.434 0.1 Z" fill="rgb(0,0,0)"></path></svg>