<svg xmlns="http://www.w3.org/2000/svg" xmlns:xlink="http://www.w3.org/1999/xlink" viewBox="0 0 94.995 39.794" overflow="visible"><g><path d="M 0 0.004 L 94.995 0.004 L 94.995 39.794 L 0 39.794 Z" fill="transparent"></path><path d="M 15.103 12.721 C 15.103 10.359 13.695 9.036 11.879 8.309 C 13.372 7.61 14.337 6.105 14.362 4.438 C 14.362 1.661 12.314 0 8.63 0 L 1.26 0 L 1.26 18.168 L 8.758 18.168 C 12.211 18.171 15.103 16.147 15.103 12.721 Z M 4.636 3.011 L 8.368 3.011 C 10.261 3.011 11.082 3.659 11.082 5.035 C 11.082 6.411 10.263 7.06 8.368 7.06 L 4.636 7.06 Z M 4.636 15.105 L 4.636 10.071 L 8.551 10.071 C 10.727 10.071 11.724 10.978 11.724 12.588 C 11.724 14.197 10.726 15.105 8.551 15.105 Z M 24.837 16.121 C 24.81 16.855 25.026 17.577 25.452 18.171 L 28.729 18.171 C 28.095 17.237 27.796 16.111 27.881 14.98 L 27.881 9.607 C 27.881 6.467 25.885 4.936 22.328 4.936 C 18.925 4.936 16.98 6.882 16.98 8.88 C 16.98 9.256 17.059 9.628 17.21 9.97 L 20.102 8.984 C 20.064 8.885 20.047 8.779 20.051 8.673 C 20.051 7.868 20.844 7.22 22.328 7.22 C 23.889 7.22 24.657 7.92 24.657 9.166 L 24.657 9.659 L 20.84 10.256 C 18.434 10.619 16.31 11.891 16.31 14.513 C 16.31 16.952 18.076 18.535 20.584 18.535 C 22.337 18.608 23.982 17.675 24.837 16.121 Z M 19.463 14.33 C 19.463 13.293 20.205 12.67 21.584 12.438 L 24.654 11.922 L 24.654 12.156 C 24.654 14.65 23.222 15.892 21.353 15.892 C 20.231 15.887 19.463 15.368 19.463 14.329 Z M 33.59 10.956 C 33.59 8.879 34.742 7.79 35.996 7.79 C 37.404 7.79 38.043 8.698 38.043 10.255 L 38.043 18.169 L 41.267 18.169 L 41.267 11.004 C 41.267 8.876 42.29 7.787 43.726 7.787 C 45.134 7.787 45.723 8.694 45.723 10.2 L 45.723 18.168 L 48.946 18.168 L 48.946 9.166 C 48.946 6.622 47.487 4.935 44.852 4.935 C 43.216 4.9 41.682 5.737 40.809 7.141 C 40.253 5.685 38.809 4.783 37.277 4.935 C 35.776 4.929 34.38 5.716 33.592 7.011 L 33.592 5.299 L 30.369 5.299 L 30.369 18.171 L 33.592 18.171 Z M 54.405 16.589 C 55.382 17.882 56.92 18.608 58.524 18.534 C 61.851 18.534 64.641 16.017 64.641 11.738 C 64.641 7.46 61.979 4.943 58.576 4.943 C 56.965 4.911 55.429 5.627 54.405 6.889 L 54.405 0.011 L 51.181 0.011 L 51.181 18.179 L 54.405 18.179 L 54.405 16.588 Z M 57.782 8 C 59.282 7.957 60.659 8.84 61.262 10.234 C 61.866 11.627 61.576 13.253 60.53 14.344 C 59.484 15.436 57.89 15.775 56.499 15.203 C 55.109 14.63 54.199 13.26 54.199 11.738 C 54.15 10.75 54.508 9.786 55.187 9.077 C 55.867 8.368 56.807 7.978 57.782 8 Z M 79.801 11.735 C 79.801 7.22 76.346 4.939 72.866 4.939 C 69.386 4.939 65.931 7.223 65.931 11.735 C 65.931 16.247 69.386 18.531 72.866 18.531 C 76.346 18.531 79.801 16.251 79.801 11.735 Z M 72.866 15.473 C 71.373 15.483 70.021 14.58 69.442 13.184 C 68.864 11.788 69.172 10.176 70.224 9.102 C 71.276 8.027 72.863 7.703 74.244 8.279 C 75.624 8.856 76.525 10.221 76.525 11.735 C 76.558 12.731 76.184 13.697 75.491 14.404 C 74.798 15.112 73.849 15.498 72.866 15.472 Z M 87.969 4.935 C 84.492 4.935 81.034 7.219 81.034 11.731 C 81.034 16.243 84.489 18.526 87.969 18.526 C 91.449 18.526 94.904 16.243 94.904 11.731 C 94.904 7.219 91.45 4.935 87.969 4.935 Z M 87.969 15.473 C 86.476 15.484 85.123 14.58 84.546 13.183 C 83.965 11.786 84.272 10.172 85.325 9.096 C 86.378 8.02 87.967 7.695 89.348 8.273 C 90.73 8.852 91.63 10.218 91.628 11.734 C 91.679 13.256 90.785 14.647 89.391 15.213 C 88.939 15.397 88.456 15.485 87.969 15.472 Z M 79.076 20.465 C 76.386 20.465 74.206 22.676 74.206 25.403 C 74.206 28.131 76.386 30.342 79.076 30.342 C 81.765 30.342 83.946 28.131 83.946 25.403 C 83.946 22.676 81.765 20.465 79.076 20.465 Z M 79.076 29.364 C 77.494 29.375 76.061 28.417 75.448 26.938 C 74.835 25.458 75.163 23.75 76.278 22.612 C 77.393 21.473 79.075 21.129 80.537 21.741 C 82 22.352 82.955 23.798 82.955 25.402 C 82.961 26.45 82.554 27.456 81.826 28.2 C 81.099 28.943 80.109 29.362 79.076 29.364 Z" fill="rgb(0,0,0)"></path><path d="M 76.033 23.895 L 76.862 23.895 L 76.862 26.167 L 77.541 26.167 L 77.541 23.896 L 78.313 23.896 L 78.313 23.236 L 76.033 23.236 Z M 80.253 25.148 L 79.49 23.236 L 78.62 23.236 L 78.62 26.167 L 79.267 26.167 L 79.267 24.372 L 79.966 26.153 L 79.972 26.166 L 80.516 26.166 L 81.222 24.349 L 81.222 26.166 L 81.889 26.166 L 81.889 23.235 L 80.981 23.235 Z M 21.807 27.837 L 21.807 25.787 L 18.584 25.787 L 18.584 38.66 L 21.807 38.66 L 21.807 32.301 C 21.807 30.121 22.959 28.485 24.877 28.485 C 25.235 28.484 25.59 28.546 25.927 28.668 L 26.436 25.58 C 26.078 25.471 25.706 25.418 25.333 25.423 C 23.784 25.43 22.392 26.384 21.807 27.838 Z M 33.433 25.423 C 29.956 25.423 26.498 27.707 26.498 32.219 C 26.498 36.731 29.953 39.014 33.433 39.014 C 36.914 39.014 40.368 36.731 40.368 32.219 C 40.368 27.707 36.914 25.423 33.433 25.423 Z M 33.433 35.961 C 31.941 35.971 30.59 35.067 30.011 33.672 C 29.433 32.277 29.742 30.665 30.793 29.591 C 31.845 28.517 33.431 28.192 34.811 28.769 C 36.191 29.346 37.092 30.709 37.093 32.223 C 37.125 33.219 36.751 34.185 36.058 34.893 C 35.366 35.6 34.416 35.987 33.433 35.961 Z M 53.431 34.403 L 51.152 25.787 L 48.081 25.787 L 45.803 34.404 L 43.755 25.787 L 40.634 25.787 L 44.165 38.66 L 47.287 38.66 L 49.616 29.81 L 51.946 38.66 L 55.068 38.66 L 58.599 25.787 L 55.478 25.787 Z M 69.17 27.37 C 68.278 26.044 66.757 25.302 65.179 25.423 C 63.451 25.453 61.81 26.194 60.633 27.475 C 59.455 28.757 58.842 30.469 58.934 32.219 C 58.934 36.501 61.725 39.014 65.179 39.014 C 66.8 39.075 68.327 38.241 69.17 36.835 L 69.17 38.651 L 72.394 38.651 L 72.394 20.492 L 69.17 20.492 Z M 65.792 35.961 C 64.292 36.004 62.915 35.12 62.312 33.727 C 61.708 32.333 61.998 30.708 63.044 29.616 C 64.09 28.525 65.684 28.186 67.075 28.758 C 68.465 29.331 69.375 30.701 69.375 32.223 C 69.419 33.209 69.06 34.171 68.381 34.878 C 67.703 35.586 66.765 35.978 65.792 35.961 Z M 9.288 23.275 C 11.463 23.277 13.469 24.463 14.541 26.382 L 17.166 24.121 C 15.419 21.436 12.46 19.821 9.288 19.82 C 6.795 19.807 4.406 20.827 2.672 22.644 C -0.886 26.426 -0.886 32.375 2.672 36.158 C 4.406 37.974 6.795 38.994 9.288 38.982 C 12.437 38.981 15.379 37.389 17.132 34.736 L 14.507 32.479 C 13.427 34.367 11.438 35.529 9.286 35.531 C 6.011 35.443 3.402 32.725 3.402 29.404 C 3.402 26.082 6.011 23.365 9.286 23.277 Z" fill="rgb(0,0,0)"></path></g></svg>