<svg width="511" height="48" viewBox="0 0 511 48" fill="none" xmlns="http://www.w3.org/2000/svg">
<path d="M430.809 23.3002V34.6202H425.482V14.9402H430.648V17.3802C431.85 15.3402 434.213 14.4202 436.335 14.4202C441.221 14.4202 443.463 17.9002 443.463 22.2202V34.6202H438.137V23.1402C438.137 20.9402 437.056 19.2202 434.493 19.2202C432.17 19.2202 430.809 21.0202 430.809 23.3002Z" fill="#409AF9"/>
<path d="M400.746 35.7002L405.552 34.4202C405.912 36.5802 407.634 38.1402 410.157 38.1402C413.521 38.1402 415.403 36.4602 415.403 32.6602V31.2202C414.602 32.5002 412.76 33.7402 409.917 33.7402C404.671 33.7402 400.746 29.7002 400.746 24.1802C400.746 18.9802 404.511 14.5802 409.917 14.5802C413.041 14.5802 414.843 15.9402 415.523 17.2602V14.9402H420.65V32.5002C420.65 37.9002 417.726 42.8202 410.317 42.8202C404.911 42.8202 401.307 39.4602 400.746 35.7002ZM410.838 29.1802C413.561 29.1802 415.483 27.2202 415.483 24.1802C415.483 21.1402 413.401 19.2202 410.838 19.2202C408.195 19.2202 406.112 21.1402 406.112 24.1802C406.112 27.2602 408.075 29.1802 410.838 29.1802Z" fill="#409AF9"/>
<path d="M397.006 34.6202H391.68V14.9402H397.006V34.6202ZM391.039 8.50018C391.039 6.66018 392.521 5.18018 394.323 5.18018C396.165 5.18018 397.607 6.66018 397.607 8.50018C397.607 10.2602 396.165 11.7402 394.323 11.7402C392.521 11.7402 391.039 10.2602 391.039 8.50018Z" fill="#409AF9"/>
<path d="M372.099 29.1402L376.665 28.1402C376.785 29.7002 377.946 31.1402 380.269 31.1402C382.031 31.1402 382.872 30.2202 382.872 29.1802C382.872 28.3002 382.271 27.5802 380.75 27.2602L378.146 26.6602C374.342 25.8202 372.62 23.5402 372.62 20.7802C372.62 17.2602 375.744 14.3402 379.989 14.3402C385.595 14.3402 387.477 17.9002 387.718 20.0202L383.272 21.0202C383.112 19.8602 382.271 18.3802 380.029 18.3802C378.627 18.3802 377.506 19.2202 377.506 20.3402C377.506 21.3002 378.227 21.9002 379.308 22.1002L382.111 22.7002C385.996 23.5002 387.958 25.8602 387.958 28.7402C387.958 31.9402 385.475 35.2202 380.309 35.2202C374.382 35.2202 372.34 31.3802 372.099 29.1402Z" fill="#409AF9"/>
<path d="M356.091 22.5402H364.902C364.821 20.5802 363.54 18.6602 360.496 18.6602C357.733 18.6602 356.211 20.7402 356.091 22.5402ZM365.422 27.6602L369.867 28.9802C368.866 32.3802 365.743 35.2202 360.897 35.2202C355.49 35.2202 350.725 31.3402 350.725 24.7002C350.725 18.4202 355.37 14.3402 360.416 14.3402C366.503 14.3402 370.148 18.2202 370.148 24.5402C370.148 25.3002 370.068 26.1002 370.068 26.1802H355.971C356.091 28.7802 358.294 30.6602 360.937 30.6602C363.42 30.6602 364.781 29.4202 365.422 27.6602Z" fill="#409AF9"/>
<path d="M329.598 29.5002H334.003C338.648 29.5002 342.533 26.6202 342.533 20.4602C342.533 14.3002 338.688 11.3802 334.043 11.3802H329.598V29.5002ZM334.203 34.6202H324.071V6.26018H334.243C342.333 6.26018 348.259 11.5002 348.259 20.4602C348.259 29.4202 342.293 34.6202 334.203 34.6202Z" fill="#409AF9"/>
<path d="M306.526 9.06018V14.9402H310.49V19.6602H306.526V27.9002C306.526 29.6202 307.327 30.1802 308.849 30.1802C309.489 30.1802 310.21 30.1002 310.49 30.0202V34.4202C310.01 34.6202 309.049 34.9002 307.487 34.9002C303.642 34.9002 301.24 32.6202 301.24 28.8202V19.6602H297.675V14.9402H298.677C300.759 14.9402 301.72 13.5802 301.72 11.8202V9.06018H306.526Z" fill="#409AF9"/>
<path d="M287.351 19.2602C284.628 19.2602 282.345 21.2202 282.345 24.7802C282.345 28.3402 284.668 30.3402 287.391 30.3402C290.114 30.3402 291.476 28.5402 291.916 27.0202L296.602 28.5802C295.721 31.8602 292.637 35.2202 287.391 35.2202C281.584 35.2202 277.019 30.8202 277.019 24.7802C277.019 18.7002 281.504 14.3402 287.231 14.3402C292.597 14.3402 295.641 17.6602 296.482 20.9802L291.716 22.5802C291.236 20.9402 289.994 19.2602 287.351 19.2602Z" fill="#409AF9"/>
<path d="M268.57 34.6202C268.49 34.2202 268.409 33.3002 268.409 32.5002C267.328 34.3402 265.046 35.1402 262.963 35.1402C258.197 35.1402 255.474 31.6602 255.474 27.3802V14.9402H260.801V26.3002C260.801 28.5002 261.922 30.2602 264.405 30.2602C266.768 30.2602 268.129 28.6602 268.129 26.3802V14.9402H273.455V31.0602C273.455 32.5802 273.576 33.9402 273.656 34.6202H268.57Z" fill="#409AF9"/>
<path d="M250.535 5.66018V31.0602C250.535 32.3802 250.615 33.8202 250.696 34.6202H245.61C245.53 34.2202 245.409 33.2602 245.409 32.3402C244.528 33.9002 242.526 35.1002 239.883 35.1002C234.276 35.1002 230.272 30.7002 230.272 24.7402C230.272 18.9802 234.156 14.4602 239.723 14.4602C243.127 14.4602 244.729 15.8602 245.289 16.9002V5.66018H250.535ZM235.638 24.7402C235.638 28.2602 237.72 30.3402 240.524 30.3402C243.247 30.3402 245.369 28.2602 245.369 24.7002C245.369 21.1802 243.247 19.2202 240.524 19.2202C237.8 19.2202 235.638 21.2202 235.638 24.7402Z" fill="#409AF9"/>
<path d="M217.778 30.3802C220.381 30.3802 222.783 28.5002 222.783 24.7802C222.783 21.0602 220.381 19.1802 217.778 19.1802C215.174 19.1802 212.772 21.0602 212.772 24.7802C212.772 28.4602 215.174 30.3802 217.778 30.3802ZM217.778 14.3402C223.664 14.3402 228.11 18.7002 228.11 24.7802C228.11 30.8202 223.664 35.2202 217.778 35.2202C211.891 35.2202 207.445 30.8202 207.445 24.7802C207.445 18.7002 211.891 14.3402 217.778 14.3402Z" fill="#409AF9"/>
<path d="M205.937 14.8602V20.2202C205.336 20.1002 204.815 20.0602 204.335 20.0602C201.612 20.0602 199.249 21.3802 199.249 25.6202V34.6202H193.923V14.9402H199.089V17.8602C200.29 15.2602 203.013 14.7802 204.695 14.7802C205.136 14.7802 205.536 14.8202 205.937 14.8602Z" fill="#409AF9"/>
<path d="M176.633 19.1802H180.998C183.762 19.1802 185.444 17.5802 185.444 15.1402C185.444 12.6202 183.762 11.0602 180.998 11.0602H176.633V19.1802ZM181.679 23.9402H176.593V34.6202H171.067V6.26018H181.679C187.286 6.26018 191.01 9.98018 191.01 15.1002C191.01 20.2602 187.286 23.9402 181.679 23.9402Z" fill="#409AF9"/>
<path d="M143.833 23.3002V34.6202H138.506V14.9402H143.672V17.3802C144.874 15.3402 147.237 14.4202 149.359 14.4202C154.245 14.4202 156.487 17.9002 156.487 22.2202V34.6202H151.161V23.1402C151.161 20.9402 150.08 19.2202 147.517 19.2202C145.194 19.2202 143.833 21.0202 143.833 23.3002Z" fill="#409AF9"/>
<path d="M123.466 42.3802H117.819L122.465 32.1402L114.095 14.9402H120.062L125.308 26.4602L130.154 14.9402H135.84L123.466 42.3802Z" fill="#409AF9"/>
<path d="M111.516 34.6202H106.19V5.66018H111.516V34.6202Z" fill="#409AF9"/>
<path d="M103.483 14.9402L95.5937 23.2202L103.643 34.6202H97.1155L91.9094 27.1002L89.7068 29.4202V34.6202H84.3806V5.66018H89.7068V22.2602L96.5148 14.9402H103.483Z" fill="#409AF9"/>
<path d="M70.4048 30.3802C73.0078 30.3802 75.4107 28.5002 75.4107 24.7802C75.4107 21.0602 73.0078 19.1802 70.4048 19.1802C67.8017 19.1802 65.3989 21.0602 65.3989 24.7802C65.3989 28.4602 67.8017 30.3802 70.4048 30.3802ZM70.4048 14.3402C76.2917 14.3402 80.7369 18.7002 80.7369 24.7802C80.7369 30.8202 76.2917 35.2202 70.4048 35.2202C64.5179 35.2202 60.0727 30.8202 60.0727 24.7802C60.0727 18.7002 64.5179 14.3402 70.4048 14.3402Z" fill="#409AF9"/>
<path d="M47.5786 30.3802C50.1817 30.3802 52.5845 28.5002 52.5845 24.7802C52.5845 21.0602 50.1817 19.1802 47.5786 19.1802C44.9756 19.1802 42.5727 21.0602 42.5727 24.7802C42.5727 28.4602 44.9756 30.3802 47.5786 30.3802ZM47.5786 14.3402C53.4655 14.3402 57.9107 18.7002 57.9107 24.7802C57.9107 30.8202 53.4655 35.2202 47.5786 35.2202C41.6917 35.2202 37.2465 30.8202 37.2465 24.7802C37.2465 18.7002 41.6917 14.3402 47.5786 14.3402Z" fill="#409AF9"/>
<path d="M35.7378 14.8602V20.2202C35.1371 20.1002 34.6165 20.0602 34.136 20.0602C31.4128 20.0602 29.05 21.3802 29.05 25.6202V34.6202H23.7237V14.9402H28.8898V17.8602C30.0912 15.2602 32.8144 14.7802 34.4964 14.7802C34.9369 14.7802 35.3374 14.8202 35.7378 14.8602Z" fill="#409AF9"/>
<path d="M0.320312 6.26018H10.5323C16.0588 6.26018 19.1825 9.50018 19.1825 13.9002C19.1825 16.8202 17.4204 19.1802 15.0576 19.9802C17.8209 20.6602 20.0635 23.1802 20.0635 26.7002C20.0635 31.3002 16.6195 34.6202 11.2932 34.6202H0.320312V6.26018ZM5.76671 17.9802H9.69132C12.2143 17.9802 13.7361 16.5802 13.7361 14.4202C13.7361 12.2602 12.3344 10.9002 9.65127 10.9002H5.76671V17.9802ZM5.76671 30.0202H10.252C12.9351 30.0202 14.537 28.6202 14.537 26.3402C14.537 24.1002 13.0953 22.5402 10.3321 22.5402H5.76671V30.0202Z" fill="#409AF9"/>
<path fill-rule="evenodd" clip-rule="evenodd" d="M462.687 32.64H478.065V48H462.687V32.64ZM466.12 36.0699V44.5701H474.632V36.0699H466.12Z" fill="#F76363"/>
<path fill-rule="evenodd" clip-rule="evenodd" d="M481.429 3.38162C478.785 3.38162 476.644 5.52153 476.644 8.16C476.644 10.7985 478.785 12.9384 481.429 12.9384C484.072 12.9384 486.213 10.7985 486.213 8.16C486.213 5.52153 484.072 3.38162 481.429 3.38162ZM473.259 8.16C473.259 3.6528 476.917 0 481.429 0C485.94 0 489.598 3.6528 489.598 8.16C489.598 12.6672 485.94 16.32 481.429 16.32C476.917 16.32 473.259 12.6672 473.259 8.16Z" fill="#60DBDA"/>
<path fill-rule="evenodd" clip-rule="evenodd" d="M501.612 17.28L510.743 33.6H492.482L501.612 17.28ZM497.349 30.7439H505.876L501.612 23.1238L497.349 30.7439Z" fill="#F8DA4D"/>
</svg>
