<svg width="215" height="120" viewBox="0 0 215 120" fill="none" xmlns="http://www.w3.org/2000/svg">
<path d="M18.4086 28.7213H0.428711V0.595053H5.89395V23.4848H18.4086V28.7213Z" fill="white"/>
<path d="M30.7113 24.5162C33.2855 24.5162 35.6617 22.6517 35.6617 18.9624C35.6617 15.273 33.2855 13.4085 30.7113 13.4085C28.1371 13.4085 25.7609 15.273 25.7609 18.9624C25.7609 22.612 28.1371 24.5162 30.7113 24.5162ZM30.7113 8.60844C36.533 8.60844 40.9289 12.9325 40.9289 18.9624C40.9289 24.9526 36.533 29.3163 30.7113 29.3163C24.8896 29.3163 20.4937 24.9526 20.4937 18.9624C20.4937 12.9325 24.8896 8.60844 30.7113 8.60844Z" fill="white"/>
<path d="M43.1502 23.2864L47.6649 22.2947C47.7838 23.8418 48.9323 25.2699 51.2292 25.2699C52.9718 25.2699 53.8034 24.3575 53.8034 23.3261C53.8034 22.4534 53.2094 21.7393 51.7045 21.4219L49.1303 20.8269C45.368 19.9938 43.665 17.7326 43.665 14.9953C43.665 11.5044 46.7541 8.60844 50.952 8.60844C56.4965 8.60844 58.3578 12.1391 58.5954 14.2416L54.1995 15.2334C54.0411 14.0829 53.2094 12.6151 50.9916 12.6151C49.6055 12.6151 48.4966 13.4482 48.4966 14.559C48.4966 15.5111 49.2095 16.1061 50.2788 16.3045L53.051 16.8995C56.8925 17.6929 58.833 20.0335 58.833 22.8897C58.833 26.0633 56.3776 29.3163 51.2688 29.3163C45.4076 29.3163 43.3878 25.508 43.1502 23.2864Z" fill="white"/>
<path d="M91.7518 28.7213L89.4152 22.2947H78.0095L75.6729 28.7213H69.8908L80.6629 0.595053H86.9994L97.6923 28.7213H91.7518ZM83.7123 6.6646L79.8312 17.2962H87.5935L83.7123 6.6646Z" fill="white"/>
<path d="M105.804 17.4946V28.7213H100.537V9.2035H105.646V11.6234C106.834 9.6002 109.17 8.68778 111.269 8.68778C116.101 8.68778 118.319 12.1391 118.319 16.4235V28.7213H113.052V17.3359C113.052 15.154 111.982 13.4482 109.448 13.4482C107.151 13.4482 105.804 15.2334 105.804 17.4946Z" fill="white"/>
<path d="M122.005 29.7923L126.758 28.5229C127.114 30.6651 128.817 32.2122 131.312 32.2122C134.639 32.2122 136.5 30.5461 136.5 26.7774V25.3493C135.708 26.6187 133.886 27.8485 131.075 27.8485C125.886 27.8485 122.005 23.8418 122.005 18.3673C122.005 13.2102 125.728 8.84646 131.075 8.84646C134.164 8.84646 135.946 10.1953 136.619 11.5044V9.2035H141.688V26.6187C141.688 31.9742 138.797 36.8536 131.471 36.8536C126.124 36.8536 122.56 33.5214 122.005 29.7923ZM131.985 23.3261C134.678 23.3261 136.579 21.3823 136.579 18.3673C136.579 15.3524 134.52 13.4482 131.985 13.4482C129.372 13.4482 127.312 15.3524 127.312 18.3673C127.312 21.4219 129.253 23.3261 131.985 23.3261Z" fill="white"/>
<path d="M150.59 16.7408H159.303C159.224 14.797 157.956 12.8928 154.947 12.8928C152.214 12.8928 150.709 14.9557 150.59 16.7408ZM159.818 21.8186L164.214 23.1277C163.224 26.4997 160.135 29.3163 155.343 29.3163C149.996 29.3163 145.283 25.4683 145.283 18.883C145.283 12.6548 149.877 8.60844 154.867 8.60844C160.887 8.60844 164.491 12.4565 164.491 18.7244C164.491 19.4781 164.412 20.2715 164.412 20.3508H150.471C150.59 22.9294 152.768 24.7939 155.382 24.7939C157.838 24.7939 159.184 23.5641 159.818 21.8186Z" fill="white"/>
<path d="M173.633 28.7213H168.366V0H173.633V28.7213Z" fill="white"/>
<path d="M182.84 16.7408H191.553C191.474 14.797 190.207 12.8928 187.197 12.8928C184.464 12.8928 182.959 14.9557 182.84 16.7408ZM192.068 21.8186L196.464 23.1277C195.474 26.4997 192.385 29.3163 187.593 29.3163C182.246 29.3163 177.534 25.4683 177.534 18.883C177.534 12.6548 182.128 8.60844 187.118 8.60844C193.137 8.60844 196.741 12.4565 196.741 18.7244C196.741 19.4781 196.662 20.2715 196.662 20.3508H182.722C182.84 22.9294 185.019 24.7939 187.632 24.7939C190.088 24.7939 191.434 23.5641 192.068 21.8186Z" fill="white"/>
<path d="M198.953 23.2864L203.467 22.2947C203.586 23.8418 204.735 25.2699 207.032 25.2699C208.774 25.2699 209.606 24.3575 209.606 23.3261C209.606 22.4534 209.012 21.7393 207.507 21.4219L204.933 20.8269C201.17 19.9938 199.467 17.7326 199.467 14.9953C199.467 11.5044 202.556 8.60844 206.754 8.60844C212.299 8.60844 214.16 12.1391 214.398 14.2416L210.002 15.2334C209.843 14.0829 209.012 12.6151 206.794 12.6151C205.408 12.6151 204.299 13.4482 204.299 14.559C204.299 15.5111 205.012 16.1061 206.081 16.3045L208.853 16.8995C212.695 17.6929 214.635 20.0335 214.635 22.8897C214.635 26.0633 212.18 29.3163 207.071 29.3163C201.21 29.3163 199.19 25.508 198.953 23.2864Z" fill="white"/>
<path d="M5.93355 53.3524H10.2503C12.9829 53.3524 14.6463 51.7656 14.6463 49.3457C14.6463 46.8464 12.9829 45.2993 10.2503 45.2993H5.93355V53.3524ZM10.9236 58.0731H5.89395V68.6651H0.428711V40.5389H10.9236C16.468 40.5389 20.1511 44.2282 20.1511 49.306C20.1511 54.4235 16.468 58.0731 10.9236 58.0731Z" fill="white"/>
<path d="M35.1936 49.068V54.3838C34.5995 54.2648 34.0847 54.2251 33.6095 54.2251C30.9164 54.2251 28.5798 55.5342 28.5798 59.7393V68.6651H23.3126V49.1473H28.4214V52.0432C29.6095 49.4647 32.3025 48.9886 33.9659 48.9886C34.4015 48.9886 34.7975 49.0283 35.1936 49.068Z" fill="white"/>
<path d="M47.1844 64.46C49.7587 64.46 52.1348 62.5955 52.1348 58.9062C52.1348 55.2169 49.7587 53.3524 47.1844 53.3524C44.6102 53.3524 42.234 55.2169 42.234 58.9062C42.234 62.5559 44.6102 64.46 47.1844 64.46ZM47.1844 48.5523C53.0061 48.5523 57.4021 52.8763 57.4021 58.9062C57.4021 64.8964 53.0061 69.2601 47.1844 69.2601C41.3628 69.2601 36.9668 64.8964 36.9668 58.9062C36.9668 52.8763 41.3628 48.5523 47.1844 48.5523Z" fill="white"/>
<path d="M79.8605 39.9438V65.1344C79.8605 66.4435 79.9398 67.8717 80.019 68.6651H74.9894C74.9102 68.2684 74.7913 67.3163 74.7913 66.4039C73.9201 67.951 71.9399 69.1411 69.3261 69.1411C63.7817 69.1411 59.8213 64.7774 59.8213 58.8665C59.8213 53.154 63.6628 48.6713 69.1677 48.6713C72.534 48.6713 74.1181 50.0597 74.6725 51.0912V39.9438H79.8605ZM65.1282 58.8665C65.1282 62.3575 67.1875 64.4204 69.9598 64.4204C72.6528 64.4204 74.7517 62.3575 74.7517 58.8269C74.7517 55.3359 72.6528 53.392 69.9598 53.392C67.2667 53.392 65.1282 55.3755 65.1282 58.8665Z" fill="white"/>
<path d="M97.9763 68.6651C97.8971 68.2684 97.8179 67.356 97.8179 66.5625C96.7486 68.3874 94.4912 69.1808 92.4319 69.1808C87.7191 69.1808 85.0261 65.7295 85.0261 61.4848V49.1473H90.2933V60.4137C90.2933 62.5955 91.4022 64.341 93.8576 64.341C96.1942 64.341 97.5407 62.7542 97.5407 60.493V49.1473H102.808V65.1344C102.808 66.6419 102.927 67.9907 103.006 68.6651H97.9763Z" fill="white"/>
<path d="M116.831 53.4317C114.138 53.4317 111.881 55.3755 111.881 58.9062C111.881 62.4368 114.177 64.4204 116.87 64.4204C119.564 64.4204 120.91 62.6352 121.346 61.1277L125.979 62.6749C125.108 65.9278 122.059 69.2601 116.87 69.2601C111.128 69.2601 106.613 64.8964 106.613 58.9062C106.613 52.8763 111.049 48.5523 116.712 48.5523C122.019 48.5523 125.029 51.8449 125.86 55.1375L121.148 56.7243C120.672 55.0979 119.445 53.4317 116.831 53.4317Z" fill="white"/>
<path d="M136.074 43.3158V49.1473H139.995V53.8284H136.074V62.0005C136.074 63.7063 136.866 64.2617 138.371 64.2617C139.005 64.2617 139.718 64.1823 139.995 64.103V68.4667C139.52 68.6651 138.569 68.9428 137.025 68.9428C133.223 68.9428 130.847 66.6816 130.847 62.9129V53.8284H127.322V49.1473H128.312C130.372 49.1473 131.322 47.7985 131.322 46.053V43.3158H136.074Z" fill="white"/>
<path d="M5.89395 103.531H10.2503C14.8443 103.531 18.6858 100.675 18.6858 94.5656C18.6858 88.4564 14.8839 85.5605 10.2899 85.5605H5.89395V103.531ZM10.4483 108.609H0.428711V80.4827H10.4879C18.4878 80.4827 24.349 85.6795 24.349 94.5656C24.349 103.452 18.4482 108.609 10.4483 108.609Z" fill="white"/>
<path d="M32.3753 96.6285H41.088C41.0088 94.6846 39.7414 92.7805 36.7316 92.7805C33.999 92.7805 32.4941 94.8433 32.3753 96.6285ZM41.6028 101.706L45.9988 103.015C45.0087 106.387 41.9196 109.204 37.1276 109.204C31.7812 109.204 27.0684 105.356 27.0684 98.7707C27.0684 92.5424 31.6624 88.4961 36.6524 88.4961C42.6721 88.4961 46.276 92.3441 46.276 98.612C46.276 99.3657 46.1968 100.159 46.1968 100.238H32.2564C32.3753 102.817 34.5534 104.682 37.1672 104.682C39.6226 104.682 40.9692 103.452 41.6028 101.706Z" fill="white"/>
<path d="M48.4873 103.174L53.0021 102.182C53.1209 103.729 54.2694 105.158 56.5664 105.158C58.3089 105.158 59.1406 104.245 59.1406 103.214C59.1406 102.341 58.5465 101.627 57.0416 101.31L54.4674 100.715C50.7051 99.8814 49.0022 97.6202 49.0022 94.883C49.0022 91.392 52.0912 88.4961 56.2892 88.4961C61.8336 88.4961 63.695 92.0267 63.9326 94.1293L59.5366 95.121C59.3782 93.9706 58.5465 92.5028 56.3288 92.5028C54.9426 92.5028 53.8338 93.3359 53.8338 94.4466C53.8338 95.3987 54.5466 95.9938 55.6159 96.1921L58.3881 96.7872C62.2296 97.5806 64.1702 99.9211 64.1702 102.777C64.1702 105.951 61.7148 109.204 56.606 109.204C50.7447 109.204 48.725 105.396 48.4873 103.174Z" fill="white"/>
<path d="M73.3994 108.609H68.1321V89.0911H73.3994V108.609ZM67.4985 82.7042C67.4985 80.8794 68.9638 79.4116 70.7459 79.4116C72.5677 79.4116 73.9934 80.8794 73.9934 82.7042C73.9934 84.4497 72.5677 85.9175 70.7459 85.9175C68.9638 85.9175 67.4985 84.4497 67.4985 82.7042Z" fill="white"/>
<path d="M77.3792 109.68L82.1316 108.411C82.4881 110.553 84.191 112.1 86.686 112.1C90.0127 112.1 91.874 110.434 91.874 106.665V105.237C91.0819 106.506 89.2602 107.736 86.4484 107.736C81.2604 107.736 77.3792 103.729 77.3792 98.255C77.3792 93.0978 81.1019 88.7341 86.4484 88.7341C89.5374 88.7341 91.3196 90.0829 91.9928 91.392V89.0911H97.062V106.506C97.062 111.862 94.171 116.741 86.8444 116.741C81.498 116.741 77.9337 113.409 77.3792 109.68ZM87.3593 103.214C90.0523 103.214 91.9532 101.27 91.9532 98.255C91.9532 95.24 89.8939 93.3359 87.3593 93.3359C84.7454 93.3359 82.6861 95.24 82.6861 98.255C82.6861 101.31 84.6266 103.214 87.3593 103.214Z" fill="white"/>
<path d="M107.39 97.3822V108.609H102.123V89.0911H107.231V91.511C108.42 89.4878 110.756 88.5754 112.855 88.5754C117.687 88.5754 119.904 92.0267 119.904 96.3111V108.609H114.637V97.2235C114.637 95.0417 113.568 93.3359 111.033 93.3359C108.736 93.3359 107.39 95.121 107.39 97.3822Z" fill="white"/>
<path fill-rule="evenodd" clip-rule="evenodd" d="M169.184 54.6531C166.731 54.6531 164.744 56.6441 164.744 59.0989C164.744 61.5537 166.731 63.5447 169.184 63.5447C171.637 63.5447 173.625 61.5537 173.625 59.0989C173.625 56.6441 171.637 54.6531 169.184 54.6531ZM161.603 59.0989C161.603 54.9054 164.998 51.5068 169.184 51.5068C173.371 51.5068 176.766 54.9054 176.766 59.0989C176.766 63.2924 173.371 66.691 169.184 66.691C164.998 66.691 161.603 63.2924 161.603 59.0989Z" fill="white"/>
<path fill-rule="evenodd" clip-rule="evenodd" d="M141.392 105.13H155.461V119.22H141.392V105.13ZM144.533 108.276V116.074H152.32V108.276H144.533Z" fill="white"/>
<path fill-rule="evenodd" clip-rule="evenodd" d="M200.318 82.6917L210.373 100.67H190.264L200.318 82.6917ZM195.624 97.5236H205.013L200.318 89.1293L195.624 97.5236Z" fill="white"/>
</svg>
