<svg width="566" height="48" viewBox="0 0 566 48" fill="none" xmlns="http://www.w3.org/2000/svg">
<path d="M486.045 23.3002V34.6202H480.729V14.9402H485.885V17.3802C487.085 15.3402 489.443 14.4202 491.561 14.4202C496.438 14.4202 498.676 17.9002 498.676 22.2202V34.6202H493.36V23.1402C493.36 20.9402 492.281 19.2202 489.723 19.2202C487.404 19.2202 486.045 21.0202 486.045 23.3002Z" fill="#409AF9"/>
<path d="M456.039 35.7002L460.836 34.4202C461.196 36.5802 462.914 38.1402 465.433 38.1402C468.79 38.1402 470.669 36.4602 470.669 32.6602V31.2202C469.87 32.5002 468.031 33.7402 465.193 33.7402C459.957 33.7402 456.039 29.7002 456.039 24.1802C456.039 18.9802 459.797 14.5802 465.193 14.5802C468.311 14.5802 470.109 15.9402 470.789 17.2602V14.9402H475.905V32.5002C475.905 37.9002 472.987 42.8202 465.593 42.8202C460.196 42.8202 456.599 39.4602 456.039 35.7002ZM466.112 29.1802C468.83 29.1802 470.749 27.2202 470.749 24.1802C470.749 21.1402 468.67 19.2202 466.112 19.2202C463.474 19.2202 461.396 21.1402 461.396 24.1802C461.396 27.2602 463.354 29.1802 466.112 29.1802Z" fill="#409AF9"/>
<path d="M452.306 34.6202H446.99V14.9402H452.306V34.6202ZM446.351 8.50018C446.351 6.66018 447.829 5.18018 449.628 5.18018C451.467 5.18018 452.906 6.66018 452.906 8.50018C452.906 10.2602 451.467 11.7402 449.628 11.7402C447.829 11.7402 446.351 10.2602 446.351 8.50018Z" fill="#409AF9"/>
<path d="M427.446 29.1402L432.003 28.1402C432.123 29.7002 433.282 31.1402 435.601 31.1402C437.359 31.1402 438.199 30.2202 438.199 29.1802C438.199 28.3002 437.599 27.5802 436.08 27.2602L433.482 26.6602C429.685 25.8202 427.966 23.5402 427.966 20.7802C427.966 17.2602 431.084 14.3402 435.321 14.3402C440.917 14.3402 442.796 17.9002 443.035 20.0202L438.598 21.0202C438.439 19.8602 437.599 18.3802 435.361 18.3802C433.962 18.3802 432.843 19.2202 432.843 20.3402C432.843 21.3002 433.562 21.9002 434.641 22.1002L437.439 22.7002C441.317 23.5002 443.275 25.8602 443.275 28.7402C443.275 31.9402 440.797 35.2202 435.641 35.2202C429.725 35.2202 427.686 31.3802 427.446 29.1402Z" fill="#409AF9"/>
<path d="M411.468 22.5402H420.262C420.182 20.5802 418.903 18.6602 415.865 18.6602C413.107 18.6602 411.588 20.7402 411.468 22.5402ZM420.782 27.6602L425.219 28.9802C424.219 32.3802 421.101 35.2202 416.265 35.2202C410.869 35.2202 406.112 31.3402 406.112 24.7002C406.112 18.4202 410.749 14.3402 415.785 14.3402C421.861 14.3402 425.498 18.2202 425.498 24.5402C425.498 25.3002 425.418 26.1002 425.418 26.1802H411.348C411.468 28.7802 413.667 30.6602 416.305 30.6602C418.783 30.6602 420.142 29.4202 420.782 27.6602Z" fill="#409AF9"/>
<path d="M385.024 29.5002H389.421C394.058 29.5002 397.935 26.6202 397.935 20.4602C397.935 14.3002 394.098 11.3802 389.461 11.3802H385.024V29.5002ZM389.621 34.6202H379.508V6.26018H389.661C397.735 6.26018 403.651 11.5002 403.651 20.4602C403.651 29.4202 397.696 34.6202 389.621 34.6202Z" fill="#409AF9"/>
<path d="M361.996 9.06018V14.9402H365.953V19.6602H361.996V27.9002C361.996 29.6202 362.795 30.1802 364.314 30.1802C364.954 30.1802 365.673 30.1002 365.953 30.0202V34.4202C365.474 34.6202 364.514 34.9002 362.955 34.9002C359.118 34.9002 356.72 32.6202 356.72 28.8202V19.6602H353.162V14.9402H354.162C356.24 14.9402 357.199 13.5802 357.199 11.8202V9.06018H361.996Z" fill="#409AF9"/>
<path d="M342.857 19.2602C340.139 19.2602 337.861 21.2202 337.861 24.7802C337.861 28.3402 340.179 30.3402 342.897 30.3402C345.615 30.3402 346.974 28.5402 347.414 27.0202L352.091 28.5802C351.211 31.8602 348.134 35.2202 342.897 35.2202C337.101 35.2202 332.545 30.8202 332.545 24.7802C332.545 18.7002 337.022 14.3402 342.737 14.3402C348.094 14.3402 351.132 17.6602 351.971 20.9802L347.214 22.5802C346.735 20.9402 345.496 19.2602 342.857 19.2602Z" fill="#409AF9"/>
<path d="M324.111 34.6202C324.031 34.2202 323.951 33.3002 323.951 32.5002C322.872 34.3402 320.594 35.1402 318.515 35.1402C313.759 35.1402 311.04 31.6602 311.04 27.3802V14.9402H316.357V26.3002C316.357 28.5002 317.476 30.2602 319.954 30.2602C322.313 30.2602 323.672 28.6602 323.672 26.3802V14.9402H328.988V31.0602C328.988 32.5802 329.108 33.9402 329.188 34.6202H324.111Z" fill="#409AF9"/>
<path d="M306.111 5.66018V31.0602C306.111 32.3802 306.191 33.8202 306.271 34.6202H301.194C301.114 34.2202 300.994 33.2602 300.994 32.3402C300.115 33.9002 298.117 35.1002 295.478 35.1002C289.882 35.1002 285.885 30.7002 285.885 24.7402C285.885 18.9802 289.762 14.4602 295.318 14.4602C298.716 14.4602 300.315 15.8602 300.875 16.9002V5.66018H306.111ZM291.241 24.7402C291.241 28.2602 293.32 30.3402 296.118 30.3402C298.836 30.3402 300.954 28.2602 300.954 24.7002C300.954 21.1802 298.836 19.2202 296.118 19.2202C293.4 19.2202 291.241 21.2202 291.241 24.7402Z" fill="#409AF9"/>
<path d="M273.415 30.3802C276.013 30.3802 278.411 28.5002 278.411 24.7802C278.411 21.0602 276.013 19.1802 273.415 19.1802C270.816 19.1802 268.418 21.0602 268.418 24.7802C268.418 28.4602 270.816 30.3802 273.415 30.3802ZM273.415 14.3402C279.29 14.3402 283.727 18.7002 283.727 24.7802C283.727 30.8202 279.29 35.2202 273.415 35.2202C267.539 35.2202 263.102 30.8202 263.102 24.7802C263.102 18.7002 267.539 14.3402 273.415 14.3402Z" fill="#409AF9"/>
<path d="M261.596 14.8602V20.2202C260.996 20.1002 260.477 20.0602 259.997 20.0602C257.279 20.0602 254.921 21.3802 254.921 25.6202V34.6202H249.605V14.9402H254.761V17.8602C255.96 15.2602 258.678 14.7802 260.357 14.7802C260.797 14.7802 261.196 14.8202 261.596 14.8602Z" fill="#409AF9"/>
<path d="M232.348 19.1802H236.705C239.463 19.1802 241.141 17.5802 241.141 15.1402C241.141 12.6202 239.463 11.0602 236.705 11.0602H232.348V19.1802ZM237.384 23.9402H232.308V34.6202H226.792V6.26018H237.384C242.98 6.26018 246.698 9.98018 246.698 15.1002C246.698 20.2602 242.98 23.9402 237.384 23.9402Z" fill="#409AF9"/>
<path d="M197.532 29.1402L202.089 28.1402C202.209 29.7002 203.368 31.1402 205.686 31.1402C207.445 31.1402 208.284 30.2202 208.284 29.1802C208.284 28.3002 207.685 27.5802 206.166 27.2602L203.568 26.6602C199.77 25.8202 198.052 23.5402 198.052 20.7802C198.052 17.2602 201.169 14.3402 205.406 14.3402C211.002 14.3402 212.881 17.9002 213.121 20.0202L208.684 21.0202C208.524 19.8602 207.685 18.3802 205.446 18.3802C204.047 18.3802 202.928 19.2202 202.928 20.3402C202.928 21.3002 203.648 21.9002 204.727 22.1002L207.525 22.7002C211.402 23.5002 213.361 25.8602 213.361 28.7402C213.361 31.9402 210.883 35.2202 205.726 35.2202C199.81 35.2202 197.772 31.3802 197.532 29.1402Z" fill="#409AF9"/>
<path d="M181.554 22.5402H190.348C190.268 20.5802 188.989 18.6602 185.951 18.6602C183.193 18.6602 181.674 20.7402 181.554 22.5402ZM190.867 27.6602L195.304 28.9802C194.305 32.3802 191.187 35.2202 186.35 35.2202C180.954 35.2202 176.198 31.3402 176.198 24.7002C176.198 18.4202 180.834 14.3402 185.871 14.3402C191.947 14.3402 195.584 18.2202 195.584 24.5402C195.584 25.3002 195.504 26.1002 195.504 26.1802H181.434C181.554 28.7802 183.752 30.6602 186.39 30.6602C188.869 30.6602 190.228 29.4202 190.867 27.6602Z" fill="#409AF9"/>
<path d="M172.545 34.6202H167.228V5.66018H172.545V34.6202Z" fill="#409AF9"/>
<path d="M149.571 22.5402H158.365C158.285 20.5802 157.006 18.6602 153.968 18.6602C151.21 18.6602 149.691 20.7402 149.571 22.5402ZM158.885 27.6602L163.322 28.9802C162.322 32.3802 159.205 35.2202 154.368 35.2202C148.972 35.2202 144.215 31.3402 144.215 24.7002C144.215 18.4202 148.852 14.3402 153.888 14.3402C159.964 14.3402 163.602 18.2202 163.602 24.5402C163.602 25.3002 163.522 26.1002 163.522 26.1802H149.452C149.571 28.7802 151.77 30.6602 154.408 30.6602C156.886 30.6602 158.245 29.4202 158.885 27.6602Z" fill="#409AF9"/>
<path d="M121.004 35.7002L125.801 34.4202C126.161 36.5802 127.88 38.1402 130.398 38.1402C133.755 38.1402 135.634 36.4602 135.634 32.6602V31.2202C134.835 32.5002 132.996 33.7402 130.158 33.7402C124.922 33.7402 121.004 29.7002 121.004 24.1802C121.004 18.9802 124.762 14.5802 130.158 14.5802C133.276 14.5802 135.075 15.9402 135.754 17.2602V14.9402H140.87V32.5002C140.87 37.9002 137.952 42.8202 130.558 42.8202C125.162 42.8202 121.564 39.4602 121.004 35.7002ZM131.077 29.1802C133.795 29.1802 135.714 27.2202 135.714 24.1802C135.714 21.1402 133.636 19.2202 131.077 19.2202C128.439 19.2202 126.361 21.1402 126.361 24.1802C126.361 27.2602 128.319 29.1802 131.077 29.1802Z" fill="#409AF9"/>
<path d="M104.936 23.3002V34.6202H99.6202V14.9402H104.777V17.3802C105.976 15.3402 108.334 14.4202 110.453 14.4202C115.329 14.4202 117.568 17.9002 117.568 22.2202V34.6202H112.251V23.1402C112.251 20.9402 111.172 19.2202 108.614 19.2202C106.296 19.2202 104.936 21.0202 104.936 23.3002Z" fill="#409AF9"/>
<path d="M91.0372 34.6202L88.6789 28.1402H77.167L74.8087 34.6202H68.9728L79.8451 6.26018H86.2406L97.033 34.6202H91.0372ZM82.923 12.3802L79.0057 23.1002H86.8402L82.923 12.3802Z" fill="#409AF9"/>
<path d="M42.5512 29.1402L47.108 28.1402C47.2279 29.7002 48.3871 31.1402 50.7054 31.1402C52.4642 31.1402 53.3036 30.2202 53.3036 29.1802C53.3036 28.3002 52.704 27.5802 51.1851 27.2602L48.5869 26.6602C44.7896 25.8202 43.0708 23.5402 43.0708 20.7802C43.0708 17.2602 46.1886 14.3402 50.4256 14.3402C56.0217 14.3402 57.9003 17.9002 58.1402 20.0202L53.7033 21.0202C53.5434 19.8602 52.704 18.3802 50.4656 18.3802C49.0666 18.3802 47.9474 19.2202 47.9474 20.3402C47.9474 21.3002 48.6669 21.9002 49.7461 22.1002L52.5441 22.7002C56.4214 23.5002 58.38 25.8602 58.38 28.7402C58.38 31.9402 55.9017 35.2202 50.7454 35.2202C44.8296 35.2202 42.791 31.3802 42.5512 29.1402Z" fill="#409AF9"/>
<path d="M30.2805 30.3802C32.8786 30.3802 35.2769 28.5002 35.2769 24.7802C35.2769 21.0602 32.8786 19.1802 30.2805 19.1802C27.6823 19.1802 25.284 21.0602 25.284 24.7802C25.284 28.4602 27.6823 30.3802 30.2805 30.3802ZM30.2805 14.3402C36.1563 14.3402 40.5932 18.7002 40.5932 24.7802C40.5932 30.8202 36.1563 35.2202 30.2805 35.2202C24.4046 35.2202 19.9678 30.8202 19.9678 24.7802C19.9678 18.7002 24.4046 14.3402 30.2805 14.3402Z" fill="#409AF9"/>
<path d="M18.1472 34.6202H0V6.26018H5.5161V29.3402H18.1472V34.6202Z" fill="#409AF9"/>
<path fill-rule="evenodd" clip-rule="evenodd" d="M517.863 32.64H533.212V48H517.863V32.64ZM521.29 36.0699V44.5701H529.786V36.0699H521.29Z" fill="#F76363"/>
<path fill-rule="evenodd" clip-rule="evenodd" d="M536.57 3.38162C533.932 3.38162 531.794 5.52153 531.794 8.16C531.794 10.7985 533.932 12.9384 536.57 12.9384C539.208 12.9384 541.346 10.7985 541.346 8.16C541.346 5.52153 539.208 3.38162 536.57 3.38162ZM528.416 8.16C528.416 3.6528 532.067 0 536.57 0C541.073 0 544.724 3.6528 544.724 8.16C544.724 12.6672 541.073 16.32 536.57 16.32C532.067 16.32 528.416 12.6672 528.416 8.16Z" fill="#60DBDA"/>
<path fill-rule="evenodd" clip-rule="evenodd" d="M556.716 17.28L565.829 33.6H547.602L556.716 17.28ZM552.461 30.7439H560.971L556.716 23.1238L552.461 30.7439Z" fill="#F8DA4D"/>
</svg>
