<svg width="536" height="48" viewBox="0 0 536 48" fill="none" xmlns="http://www.w3.org/2000/svg">
<path d="M455.94 22.9198V34.2398H450.612V14.5598H455.779V16.9998C456.981 14.9598 459.345 14.0398 461.468 14.0398C466.355 14.0398 468.599 17.5198 468.599 21.8398V34.2398H463.271V22.7598C463.271 20.5598 462.189 18.8398 459.625 18.8398C457.302 18.8398 455.94 20.6398 455.94 22.9198Z" fill="#409AF9"/>
<path d="M425.868 35.3198L430.675 34.0398C431.035 36.1998 432.758 37.7598 435.282 37.7598C438.647 37.7598 440.529 36.0798 440.529 32.2798V30.8398C439.728 32.1198 437.886 33.3598 435.041 33.3598C429.793 33.3598 425.868 29.3198 425.868 23.7998C425.868 18.5998 429.633 14.1998 435.041 14.1998C438.166 14.1998 439.969 15.5598 440.65 16.8798V14.5598H445.777V32.1198C445.777 37.5198 442.853 42.4398 435.442 42.4398C430.034 42.4398 426.428 39.0798 425.868 35.3198ZM435.963 28.7998C438.687 28.7998 440.61 26.8398 440.61 23.7998C440.61 20.7598 438.527 18.8398 435.963 18.8398C433.319 18.8398 431.236 20.7598 431.236 23.7998C431.236 26.8798 433.199 28.7998 435.963 28.7998Z" fill="#409AF9"/>
<path d="M422.126 34.2398H416.798V14.5598H422.126V34.2398ZM416.158 8.1198C416.158 6.2798 417.64 4.7998 419.442 4.7998C421.285 4.7998 422.727 6.2798 422.727 8.1198C422.727 9.87981 421.285 11.3598 419.442 11.3598C417.64 11.3598 416.158 9.87981 416.158 8.1198Z" fill="#409AF9"/>
<path d="M397.212 28.7598L401.779 27.7598C401.899 29.3198 403.06 30.7598 405.384 30.7598C407.147 30.7598 407.988 29.8398 407.988 28.7998C407.988 27.9198 407.387 27.1998 405.865 26.8798L403.261 26.2798C399.455 25.4398 397.733 23.1598 397.733 20.3998C397.733 16.8798 400.857 13.9598 405.104 13.9598C410.712 13.9598 412.595 17.5198 412.835 19.6398L408.388 20.6398C408.228 19.4798 407.387 17.9998 405.144 17.9998C403.741 17.9998 402.62 18.8398 402.62 19.9598C402.62 20.9198 403.341 21.5198 404.423 21.7198L407.227 22.3198C411.112 23.1198 413.075 25.4798 413.075 28.3598C413.075 31.5598 410.592 34.8398 405.424 34.8398C399.495 34.8398 397.452 30.9998 397.212 28.7598Z" fill="#409AF9"/>
<path d="M381.198 22.1598H390.012C389.932 20.1998 388.65 18.2798 385.605 18.2798C382.841 18.2798 381.319 20.3598 381.198 22.1598ZM390.532 27.2798L394.979 28.5998C393.978 31.9998 390.853 34.8398 386.006 34.8398C380.598 34.8398 375.83 30.9598 375.83 24.3198C375.83 18.0398 380.477 13.9598 385.525 13.9598C391.614 13.9598 395.259 17.8398 395.259 24.1598C395.259 24.9198 395.179 25.7198 395.179 25.7998H381.078C381.198 28.3998 383.402 30.2798 386.046 30.2798C388.529 30.2798 389.891 29.0398 390.532 27.2798Z" fill="#409AF9"/>
<path d="M354.696 29.1198H359.103C363.75 29.1198 367.636 26.2398 367.636 20.0798C367.636 13.9198 363.79 10.9998 359.143 10.9998H354.696V29.1198ZM359.303 34.2398H349.168V5.8798H359.343C367.435 5.8798 373.364 11.1198 373.364 20.0798C373.364 29.0398 367.395 34.2398 359.303 34.2398Z" fill="#409AF9"/>
<path d="M331.617 8.6798V14.5598H335.583V19.2798H331.617V27.5198C331.617 29.2398 332.418 29.7998 333.941 29.7998C334.582 29.7998 335.303 29.7198 335.583 29.6398V34.0398C335.102 34.2398 334.141 34.5198 332.579 34.5198C328.733 34.5198 326.329 32.2398 326.329 28.4398V19.2798H322.764V14.5598H323.766C325.849 14.5598 326.81 13.1998 326.81 11.4398V8.6798H331.617Z" fill="#409AF9"/>
<path d="M312.436 18.8798C309.712 18.8798 307.429 20.8398 307.429 24.3998C307.429 27.9598 309.752 29.9598 312.477 29.9598C315.201 29.9598 316.563 28.1598 317.003 26.6398L321.69 28.1998C320.809 31.4798 317.724 34.8398 312.477 34.8398C306.668 34.8398 302.101 30.4398 302.101 24.3998C302.101 18.3198 306.588 13.9598 312.316 13.9598C317.684 13.9598 320.729 17.2798 321.57 20.5998L316.803 22.1998C316.322 20.5598 315.08 18.8798 312.436 18.8798Z" fill="#409AF9"/>
<path d="M293.649 34.2398C293.569 33.8398 293.489 32.9198 293.489 32.1198C292.407 33.9598 290.124 34.7598 288.041 34.7598C283.274 34.7598 280.549 31.2798 280.549 26.9998V14.5598H285.877V25.9198C285.877 28.1198 286.999 29.8798 289.483 29.8798C291.846 29.8798 293.208 28.2798 293.208 25.9998V14.5598H298.536V30.6798C298.536 32.1998 298.657 33.5598 298.737 34.2398H293.649Z" fill="#409AF9"/>
<path d="M275.609 5.27981V30.6798C275.609 31.9998 275.689 33.4398 275.769 34.2398H270.682C270.602 33.8398 270.481 32.8798 270.481 31.9598C269.6 33.5198 267.597 34.7198 264.953 34.7198C259.345 34.7198 255.339 30.3198 255.339 24.3598C255.339 18.5998 259.225 14.0798 264.793 14.0798C268.198 14.0798 269.8 15.4798 270.361 16.5198V5.27981H275.609ZM260.707 24.3598C260.707 27.8798 262.79 29.9598 265.594 29.9598C268.318 29.9598 270.441 27.8798 270.441 24.3198C270.441 20.7998 268.318 18.8398 265.594 18.8398C262.87 18.8398 260.707 20.8398 260.707 24.3598Z" fill="#409AF9"/>
<path d="M242.841 29.9998C245.445 29.9998 247.848 28.1198 247.848 24.3998C247.848 20.6798 245.445 18.7998 242.841 18.7998C240.237 18.7998 237.833 20.6798 237.833 24.3998C237.833 28.0798 240.237 29.9998 242.841 29.9998ZM242.841 13.9598C248.73 13.9598 253.176 18.3198 253.176 24.3998C253.176 30.4398 248.73 34.8398 242.841 34.8398C236.952 34.8398 232.505 30.4398 232.505 24.3998C232.505 18.3198 236.952 13.9598 242.841 13.9598Z" fill="#409AF9"/>
<path d="M230.996 14.4798V19.8398C230.395 19.7198 229.874 19.6798 229.394 19.6798C226.67 19.6798 224.306 20.9998 224.306 25.2398V34.2398H218.978V14.5598H224.146V17.4798C225.348 14.8798 228.072 14.3998 229.754 14.3998C230.195 14.3998 230.596 14.4398 230.996 14.4798Z" fill="#409AF9"/>
<path d="M201.683 18.7998H206.05C208.814 18.7998 210.497 17.1998 210.497 14.7598C210.497 12.2398 208.814 10.6798 206.05 10.6798H201.683V18.7998ZM206.731 23.5598H201.643V34.2398H196.115V5.8798H206.731C212.339 5.8798 216.065 9.5998 216.065 14.7198C216.065 19.8798 212.339 23.5598 206.731 23.5598Z" fill="#409AF9"/>
<path d="M168.682 22.1598H177.495C177.415 20.1998 176.133 18.2798 173.088 18.2798C170.324 18.2798 168.802 20.3598 168.682 22.1598ZM178.016 27.2798L182.462 28.5998C181.461 31.9998 178.336 34.8398 173.489 34.8398C168.081 34.8398 163.314 30.9598 163.314 24.3198C163.314 18.0398 167.961 13.9598 173.008 13.9598C179.097 13.9598 182.743 17.8398 182.743 24.1598C182.743 24.9198 182.663 25.7198 182.663 25.7998H168.562C168.682 28.3998 170.885 30.2798 173.529 30.2798C176.013 30.2798 177.375 29.0398 178.016 27.2798Z" fill="#409AF9"/>
<path d="M161.805 14.4798V19.8398C161.204 19.7198 160.683 19.6798 160.202 19.6798C157.478 19.6798 155.115 20.9998 155.115 25.2398V34.2398H149.787V14.5598H154.955V17.4798C156.156 14.8798 158.88 14.3998 160.563 14.3998C161.004 14.3998 161.404 14.4398 161.805 14.4798Z" fill="#409AF9"/>
<path d="M135.807 29.9998C138.41 29.9998 140.814 28.1198 140.814 24.3998C140.814 20.6798 138.41 18.7998 135.807 18.7998C133.203 18.7998 130.799 20.6798 130.799 24.3998C130.799 28.0798 133.203 29.9998 135.807 29.9998ZM135.807 13.9598C141.695 13.9598 146.142 18.3198 146.142 24.3998C146.142 30.4398 141.695 34.8398 135.807 34.8398C129.918 34.8398 125.471 30.4398 125.471 24.3998C125.471 18.3198 129.918 13.9598 135.807 13.9598Z" fill="#409AF9"/>
<path d="M108.313 41.8398H102.985V14.5598H108.153V16.9598C109.034 15.4398 111.238 14.1198 114.202 14.1198C119.971 14.1198 123.296 18.5198 123.296 24.3598C123.296 30.3198 119.57 34.7198 114.002 34.7198C111.278 34.7198 109.275 33.6398 108.313 32.3198V41.8398ZM118.048 24.3998C118.048 20.9198 115.885 18.8798 113.161 18.8798C110.437 18.8798 108.233 20.9198 108.233 24.3998C108.233 27.8798 110.437 29.9598 113.161 29.9598C115.885 29.9598 118.048 27.9198 118.048 24.3998Z" fill="#409AF9"/>
<path d="M80.7497 28.8798C80.7497 25.3598 83.3536 23.3998 86.6385 22.9198L91.4857 22.1998C92.6074 22.0398 92.968 21.4798 92.968 20.7998C92.968 19.3998 91.8864 18.2398 89.643 18.2398C87.3195 18.2398 86.0376 19.7198 85.8774 21.4398L81.1503 20.4398C81.4708 17.3598 84.315 13.9598 89.6029 13.9598C95.8523 13.9598 98.1757 17.4798 98.1757 21.4398V31.1198C98.1757 32.1598 98.2959 33.5598 98.4161 34.2398H93.5288C93.4086 33.7198 93.3285 32.6398 93.3285 31.8798C92.327 33.4398 90.4442 34.7998 87.5198 34.7998C83.3136 34.7998 80.7497 31.9598 80.7497 28.8798ZM88.6415 30.8398C90.8849 30.8398 92.968 29.7598 92.968 26.2798V25.3998L88.5213 26.0798C87.1593 26.2798 86.0777 27.0398 86.0777 28.5598C86.0777 29.7198 86.9189 30.8398 88.6415 30.8398Z" fill="#409AF9"/>
<path d="M57.403 35.3198L62.2102 34.0398C62.5707 36.1998 64.2933 37.7598 66.8171 37.7598C70.1821 37.7598 72.0649 36.0798 72.0649 32.2798V30.8398C71.2637 32.1198 69.421 33.3598 66.5767 33.3598C61.3289 33.3598 57.403 29.3198 57.403 23.7998C57.403 18.5998 61.1686 14.1998 66.5767 14.1998C69.7014 14.1998 71.5041 15.5598 72.1851 16.8798V14.5598H77.3127V32.1198C77.3127 37.5198 74.3884 42.4398 66.9773 42.4398C61.5692 42.4398 57.9639 39.0798 57.403 35.3198ZM67.4981 28.7998C70.2221 28.7998 72.145 26.8398 72.145 23.7998C72.145 20.7598 70.0619 18.8398 67.4981 18.8398C64.8541 18.8398 62.771 20.7598 62.771 23.7998C62.771 26.8798 64.734 28.7998 67.4981 28.7998Z" fill="#409AF9"/>
<path d="M41.2996 22.9198V34.2398H35.9716V14.5598H41.1394V16.9998C42.3412 14.9598 44.7047 14.0398 46.8279 14.0398C51.7151 14.0398 53.9585 17.5198 53.9585 21.8398V34.2398H48.6305V22.7598C48.6305 20.5598 47.5489 18.8398 44.9851 18.8398C42.6616 18.8398 41.2996 20.6398 41.2996 22.9198Z" fill="#409AF9"/>
<path d="M30.8283 34.2398H25.5004V14.5598H30.8283V34.2398ZM24.8594 8.1198C24.8594 6.2798 26.3417 4.7998 28.1443 4.7998C29.9871 4.7998 31.4292 6.2798 31.4292 8.1198C31.4292 9.87981 29.9871 11.3598 28.1443 11.3598C26.3417 11.3598 24.8594 9.87981 24.8594 8.1198Z" fill="#409AF9"/>
<path d="M21.4719 12.6398L16.5045 14.1598C16.224 12.5998 14.9421 10.1598 11.3368 10.1598C8.65275 10.1598 6.89012 11.8798 6.89012 13.7598C6.89012 15.3198 7.89161 16.5598 9.97472 16.9598L13.9406 17.7198C19.1084 18.7198 21.8725 22.0798 21.8725 26.0798C21.8725 30.4398 18.227 34.8398 11.6172 34.8398C4.08593 34.8398 0.76097 29.9998 0.320312 25.9598L5.44797 24.5998C5.68832 27.3998 7.65126 29.9198 11.6572 29.9198C14.6217 29.9198 16.2641 28.4398 16.2641 26.4398C16.2641 24.7998 15.0223 23.5198 12.819 23.0798L8.85305 22.2798C4.32629 21.3598 1.40193 18.4398 1.40193 14.1598C1.40193 9.11981 5.92868 5.27981 11.2967 5.27981C18.187 5.27981 20.8309 9.43981 21.4719 12.6398Z" fill="#409AF9"/>
<path fill-rule="evenodd" clip-rule="evenodd" d="M487.827 32.64H503.21V48H487.827V32.64ZM491.261 36.0699V44.5701H499.776V36.0699H491.261Z" fill="#F76363"/>
<path fill-rule="evenodd" clip-rule="evenodd" d="M506.575 3.38162C503.931 3.38162 501.789 5.52153 501.789 8.16C501.789 10.7985 503.931 12.9384 506.575 12.9384C509.219 12.9384 511.362 10.7985 511.362 8.16C511.362 5.52153 509.219 3.38162 506.575 3.38162ZM498.403 8.16C498.403 3.6528 502.062 0 506.575 0C511.088 0 514.747 3.6528 514.747 8.16C514.747 12.6672 511.088 16.32 506.575 16.32C502.062 16.32 498.403 12.6672 498.403 8.16Z" fill="#60DBDA"/>
<path fill-rule="evenodd" clip-rule="evenodd" d="M526.765 17.28L535.899 33.6H517.632L526.765 17.28ZM522.501 30.7439H531.03L526.765 23.1238L522.501 30.7439Z" fill="#F8DA4D"/>
</svg>
